<svg width="24" height="24" viewBox="0 0 24 24" fill="none" xmlns="http://www.w3.org/2000/svg">
<path d="M1.56521 1.66625C-0.315007 3.61924 0.0698086 5.69385 0.0698086 11.9964C0.0698086 17.2303 -0.84338 22.4772 3.93591 23.7124C5.42831 24.0962 18.6516 24.0962 20.142 23.7104C22.1319 23.197 23.7509 21.5829 23.9722 18.7686C24.0031 18.3758 24.0031 5.62406 23.9712 5.2233C23.736 2.22553 21.8906 0.497844 19.4591 0.147921C18.9018 0.0671697 18.7902 0.0432434 15.931 0.0382587C5.7892 0.0432434 3.56605 -0.408367 1.56521 1.66625Z" fill="url(#paint0_linear)"/>
<path d="M12.0312 3.16759C8.4113 3.16759 4.97388 2.84558 3.66092 6.21521C3.11859 7.60693 3.19735 9.41436 3.19735 12.0024C3.19735 14.2734 3.12457 16.4078 3.66092 17.7886C4.97089 21.1602 8.43622 20.8372 12.0292 20.8372C15.4955 20.8372 19.0695 21.1981 20.3984 17.7886C20.9417 16.3829 20.862 14.6024 20.862 12.0024C20.862 8.55102 21.0524 6.32288 19.3785 4.65003C17.6838 2.95524 15.3918 3.16759 12.0272 3.16759H12.0312ZM11.2396 4.75969C18.7903 4.74773 19.7514 3.90831 19.221 15.5694C19.0326 19.6937 15.8923 19.2411 12.0322 19.2411C4.99382 19.2411 4.79144 19.0397 4.79144 11.9984C4.79144 4.87533 5.34972 4.76368 11.2396 4.7577V4.75969ZM16.7466 6.22618C16.1614 6.22618 15.6869 6.70072 15.6869 7.28591C15.6869 7.87111 16.1614 8.34565 16.7466 8.34565C17.3318 8.34565 17.8064 7.87111 17.8064 7.28591C17.8064 6.70072 17.3318 6.22618 16.7466 6.22618ZM12.0312 7.46536C9.52587 7.46536 7.49512 9.49711 7.49512 12.0024C7.49512 14.5077 9.52587 16.5384 12.0312 16.5384C14.5364 16.5384 16.5662 14.5077 16.5662 12.0024C16.5662 9.49711 14.5364 7.46536 12.0312 7.46536ZM12.0312 9.05746C15.9242 9.05746 15.9292 14.9473 12.0312 14.9473C8.13914 14.9473 8.13315 9.05746 12.0312 9.05746Z" fill="white"/>
<defs>
<linearGradient id="paint0_linear" x1="1.61108" y1="22.4364" x2="23.8481" y2="3.19053" gradientUnits="userSpaceOnUse">
<stop stop-color="#FFDD55"/>
<stop offset="0.5" stop-color="#FF543E"/>
<stop offset="1" stop-color="#C837AB"/>
</linearGradient>
</defs>
</svg>
