<svg width="29" height="24" viewBox="0 0 29 24" fill="none" xmlns="http://www.w3.org/2000/svg">
<path d="M26.1218 1.93757C24.7934 0.645674 22.958 0 20.6149 0C19.9665 0 19.3047 0.111972 18.6302 0.335808C17.9555 0.559807 17.3278 0.862012 16.7478 1.2422C16.1671 1.62229 15.6681 1.97922 15.2494 2.31245C14.8312 2.6458 14.4336 3.00005 14.0572 3.37493C13.6805 3.00005 13.2831 2.6458 12.8648 2.31245C12.4463 1.97922 11.9471 1.6225 11.3664 1.2422C10.7859 0.861848 10.1583 0.559862 9.48377 0.335808C8.80924 0.112027 8.14758 0 7.49916 0C5.15621 0 3.32074 0.645838 1.99247 1.93757C0.664192 3.22919 0 5.02075 0 7.31241C0 8.01034 0.12309 8.72935 0.368776 9.46856C0.614462 10.2081 0.894437 10.8384 1.20815 11.3592C1.52181 11.8798 1.87751 12.3876 2.27497 12.8825C2.67243 13.3772 2.9629 13.7182 3.14572 13.9057C3.32871 14.0932 3.47257 14.2288 3.57714 14.3122L13.3668 23.7185C13.5551 23.906 13.7852 24 14.0571 24C14.329 24 14.5593 23.906 14.7475 23.7185L24.5216 14.3431C26.9168 11.9581 28.1143 9.61435 28.1143 7.31219C28.1143 5.02037 27.4502 3.22897 26.1218 1.93757ZM23.1566 12.8746L14.0572 21.6089L4.94218 12.8589C2.98626 10.9114 2.00846 9.06221 2.00846 7.31219C2.00846 6.46856 2.12089 5.72367 2.34564 5.07799C2.57055 4.43221 2.85816 3.91903 3.20853 3.53884C3.55895 3.15854 3.9851 2.84889 4.48713 2.60913C4.98944 2.36959 5.48097 2.20809 5.96201 2.12479C6.44306 2.04161 6.95547 1.99996 7.49943 1.99996C8.04323 1.99996 8.62906 2.13262 9.2566 2.39832C9.88403 2.66391 10.4619 2.99726 10.99 3.39824C11.5183 3.79951 11.9706 4.17444 12.3473 4.52328C12.7238 4.87244 13.0374 5.19254 13.2885 5.48424C13.4767 5.71349 13.7331 5.82809 14.0572 5.82809C14.3814 5.82809 14.6376 5.71349 14.826 5.48424C15.077 5.19254 15.3909 4.87227 15.7674 4.52328C16.1439 4.17444 16.5963 3.79967 17.1243 3.39824C17.6526 2.99726 18.2304 2.66391 18.8582 2.39832C19.4855 2.13267 20.0715 1.99996 20.6153 1.99996C21.1592 1.99996 21.6714 2.04161 22.1527 2.12479C22.6339 2.20803 23.1255 2.36959 23.6276 2.60913C24.1297 2.84884 24.5558 3.1587 24.9061 3.53884C25.2565 3.91903 25.5442 4.43221 25.7691 5.07799C25.9937 5.72367 26.1061 6.46856 26.1061 7.31219C26.106 9.06221 25.123 10.9165 23.1566 12.8746Z" fill="#707070"/>
</svg>
