<svg width="36" height="36" viewBox="0 0 36 36" fill="none" xmlns="http://www.w3.org/2000/svg">
<path d="M7.49995 0C3.29397 0 0 2.30693 0 5.2499C0 8.19287 3.29397 10.4999 7.49995 10.4999C11.7059 10.4999 14.9999 8.19287 14.9999 5.2499C14.9998 2.30693 11.7059 0 7.49995 0ZM7.49995 8.99991C4.24796 8.99991 1.50003 7.28241 1.50003 5.24997C1.50003 3.21754 4.24803 1.50003 7.49995 1.50003C10.7519 1.50003 13.4999 3.21747 13.4999 5.2499C13.4999 7.28234 10.7519 8.99991 7.49995 8.99991Z" fill="#343434"/>
<path d="M7.49995 2.99992C5.81844 2.99992 4.49996 3.98844 4.49996 5.2499C4.49996 6.51137 5.81844 7.49988 7.49995 7.49988C9.18146 7.49988 10.4999 6.51137 10.4999 5.2499C10.4999 3.98844 9.18139 2.99992 7.49995 2.99992ZM7.49995 5.99992C6.59694 5.99992 5.99999 5.54845 5.99999 5.2499C5.99999 4.95143 6.59701 4.49989 7.49995 4.49989C8.40296 4.49989 8.99991 4.95136 8.99991 5.2499C8.99991 5.54845 8.40289 5.99992 7.49995 5.99992Z" fill="#343434"/>
<path d="M14.2499 4.49996C13.8359 4.49996 13.4999 4.83591 13.4999 5.2499V30.7497C13.4999 32.7823 10.7519 34.4997 7.49995 34.4997C4.24803 34.4997 1.50003 32.7822 1.50003 30.7497V5.2499C1.50003 4.83591 1.16401 4.49989 0.750016 4.49989C0.33602 4.49989 0 4.83591 0 5.2499V30.7497C0 33.6926 3.29397 35.9996 7.49995 35.9996C11.7059 35.9996 14.9999 33.6926 14.9999 30.7497V5.2499C14.9998 4.83591 14.6639 4.49996 14.2499 4.49996Z" fill="#343434"/>
<path d="M35.7806 24.2188C35.4881 23.9263 35.0126 23.9263 34.7201 24.2188L28.9391 29.9997H14.2499C13.8359 29.9997 13.4999 30.3358 13.4999 30.7497C13.4999 31.1637 13.8359 31.4998 14.2499 31.4998H29.2497C29.4492 31.4998 29.6397 31.4202 29.7807 31.2793L35.7806 25.2793C36.0731 24.9867 36.0731 24.5113 35.7806 24.2188Z" fill="#343434"/>
<path d="M35.2496 0H7.49995C7.08595 0 6.74993 0.33595 6.74993 0.749946C6.74993 1.16394 7.08595 1.50003 7.49995 1.50003L34.4997 1.49996V23.9997H29.2497C28.8357 23.9997 28.4997 24.3358 28.4997 24.7498V30.7497C28.4997 31.1637 28.8357 31.4997 29.2497 31.4997C29.6637 31.4997 29.9997 31.1637 29.9997 30.7497V25.4997H35.2497C35.6637 25.4997 35.9997 25.1637 35.9997 24.7497V0.749946C35.9996 0.33595 35.6636 0 35.2496 0Z" fill="#343434"/>
</svg>
