<svg width="100" height="22" viewBox="0 0 100 22" fill="none" xmlns="http://www.w3.org/2000/svg">
<path d="M37.3174 11.7705H35.7969V17H33.1602V4.20312H35.7969V9.32715H37.001L40.1299 4.20312H43.3467L39.4004 10.2588L43.7598 17H40.6133L37.3174 11.7705ZM50.123 17C50.0059 16.7715 49.9209 16.4873 49.8682 16.1475C49.2529 16.833 48.4531 17.1758 47.4688 17.1758C46.5371 17.1758 45.7637 16.9062 45.1484 16.3672C44.5391 15.8281 44.2344 15.1484 44.2344 14.3281C44.2344 13.3203 44.6064 12.5469 45.3506 12.0078C46.1006 11.4688 47.1816 11.1963 48.5938 11.1904H49.7627V10.6455C49.7627 10.2061 49.6484 9.85449 49.4199 9.59082C49.1973 9.32715 48.8428 9.19531 48.3564 9.19531C47.9287 9.19531 47.5918 9.29785 47.3457 9.50293C47.1055 9.70801 46.9854 9.98926 46.9854 10.3467H44.4453C44.4453 9.7959 44.6152 9.28613 44.9551 8.81738C45.2949 8.34863 45.7754 7.98242 46.3965 7.71875C47.0176 7.44922 47.7148 7.31445 48.4883 7.31445C49.6602 7.31445 50.5889 7.61035 51.2744 8.20215C51.9658 8.78809 52.3115 9.61426 52.3115 10.6807V14.8027C52.3174 15.7051 52.4434 16.3877 52.6895 16.8506V17H50.123ZM48.0225 15.2334C48.3975 15.2334 48.7432 15.1514 49.0596 14.9873C49.376 14.8174 49.6104 14.5918 49.7627 14.3105V12.6758H48.8135C47.542 12.6758 46.8652 13.1152 46.7832 13.9941L46.7744 14.1436C46.7744 14.46 46.8857 14.7207 47.1084 14.9258C47.3311 15.1309 47.6357 15.2334 48.0225 15.2334ZM62.0146 9.5293H58.9648V17H56.416V9.5293H53.4189V7.49023H62.0146V9.5293ZM68.668 17C68.5508 16.7715 68.4658 16.4873 68.4131 16.1475C67.7979 16.833 66.998 17.1758 66.0137 17.1758C65.082 17.1758 64.3086 16.9062 63.6934 16.3672C63.084 15.8281 62.7793 15.1484 62.7793 14.3281C62.7793 13.3203 63.1514 12.5469 63.8955 12.0078C64.6455 11.4688 65.7266 11.1963 67.1387 11.1904H68.3076V10.6455C68.3076 10.2061 68.1934 9.85449 67.9648 9.59082C67.7422 9.32715 67.3877 9.19531 66.9014 9.19531C66.4736 9.19531 66.1367 9.29785 65.8906 9.50293C65.6504 9.70801 65.5303 9.98926 65.5303 10.3467H62.9902C62.9902 9.7959 63.1602 9.28613 63.5 8.81738C63.8398 8.34863 64.3203 7.98242 64.9414 7.71875C65.5625 7.44922 66.2598 7.31445 67.0332 7.31445C68.2051 7.31445 69.1338 7.61035 69.8193 8.20215C70.5107 8.78809 70.8564 9.61426 70.8564 10.6807V14.8027C70.8623 15.7051 70.9883 16.3877 71.2344 16.8506V17H68.668ZM66.5674 15.2334C66.9424 15.2334 67.2881 15.1514 67.6045 14.9873C67.9209 14.8174 68.1553 14.5918 68.3076 14.3105V12.6758H67.3584C66.0869 12.6758 65.4102 13.1152 65.3281 13.9941L65.3193 14.1436C65.3193 14.46 65.4307 14.7207 65.6533 14.9258C65.876 15.1309 66.1807 15.2334 66.5674 15.2334ZM81.0781 7.49023V17H78.5381V9.54688H76.2969L76.1387 12.4824C76.0391 14.0469 75.7314 15.1865 75.2158 15.9014C74.7002 16.6162 73.9326 16.9824 72.9131 17H72.0518L72.0254 14.9346L72.3418 14.9082C72.7988 14.873 73.1328 14.6035 73.3438 14.0996C73.5547 13.5957 73.6865 12.7373 73.7393 11.5244L73.915 7.49023H81.0781ZM82.6426 12.1572C82.6426 11.2139 82.8242 10.373 83.1875 9.63477C83.5508 8.89648 84.0723 8.3252 84.752 7.9209C85.4375 7.5166 86.2314 7.31445 87.1338 7.31445C88.417 7.31445 89.4629 7.70703 90.2715 8.49219C91.0859 9.27734 91.54 10.3438 91.6338 11.6914L91.6514 12.3418C91.6514 13.8008 91.2441 14.9727 90.4297 15.8574C89.6152 16.7363 88.5225 17.1758 87.1514 17.1758C85.7803 17.1758 84.6846 16.7363 83.8643 15.8574C83.0498 14.9785 82.6426 13.7832 82.6426 12.2715V12.1572ZM85.1826 12.3418C85.1826 13.2441 85.3525 13.9355 85.6924 14.416C86.0322 14.8906 86.5186 15.1279 87.1514 15.1279C87.7666 15.1279 88.2471 14.8936 88.5928 14.4248C88.9385 13.9502 89.1113 13.1943 89.1113 12.1572C89.1113 11.2725 88.9385 10.5869 88.5928 10.1006C88.2471 9.61426 87.7607 9.37109 87.1338 9.37109C86.5127 9.37109 86.0322 9.61426 85.6924 10.1006C85.3525 10.5811 85.1826 11.3281 85.1826 12.3418ZM99.6934 9.54688H95.7559V17H93.2158V7.49023H99.6934V9.54688Z" fill="#E253B6"/>
<path d="M0 8H25M0 14H25" stroke="#E253B6" stroke-width="2" stroke-linejoin="round"/>
</svg>
