<svg width="24" height="21" viewBox="0 0 24 21" fill="none" xmlns="http://www.w3.org/2000/svg">
<path d="M22.2991 1.65402C21.1651 0.551185 19.5983 0 17.5981 0C17.0446 0 16.4796 0.0955862 15.9039 0.286665C15.3279 0.477884 14.792 0.735864 14.2969 1.06042C13.8012 1.38488 13.3752 1.68958 13.0178 1.97405C12.6608 2.25861 12.3214 2.56102 12 2.88104C11.6785 2.56102 11.3392 2.25861 10.9822 1.97405C10.6249 1.68958 10.1987 1.38506 9.70306 1.06042C9.20751 0.735724 8.67176 0.477931 8.0959 0.286665C7.52009 0.0956329 6.95525 0 6.40172 0C4.40165 0 2.83478 0.551325 1.70089 1.65402C0.566993 2.75663 0 4.28601 0 6.2423C0 6.8381 0.105077 7.45189 0.314809 8.08291C0.52454 8.71427 0.763544 9.25233 1.03135 9.69685C1.29911 10.1413 1.60275 10.5748 1.94205 10.9972C2.28134 11.4196 2.52931 11.7107 2.68537 11.8708C2.84158 12.0308 2.96439 12.1465 3.05366 12.2177L11.4107 20.2475C11.5715 20.4075 11.7679 20.4878 12 20.4878C12.2321 20.4878 12.4286 20.4075 12.5893 20.2475L20.9331 12.2441C22.9778 10.2081 24 8.20737 24 6.24211C24 4.28568 23.4331 2.75644 22.2991 1.65402ZM19.7678 10.9905L12 18.4466L4.21893 10.9771C2.54924 9.3146 1.71454 7.73603 1.71454 6.24211C1.71454 5.52194 1.81051 4.88606 2.00237 4.33487C2.19437 3.78359 2.4399 3.34551 2.73899 3.02096C3.03813 2.69631 3.40191 2.43198 3.83048 2.22731C4.25928 2.02282 4.67888 1.88495 5.08952 1.81385C5.50017 1.74284 5.9376 1.70728 6.40196 1.70728C6.86617 1.70728 7.36627 1.82053 7.90198 2.04735C8.43759 2.27407 8.93088 2.55863 9.38173 2.90094C9.83267 3.24348 10.2188 3.56355 10.5404 3.86133C10.8618 4.1594 11.1295 4.43265 11.3439 4.68166C11.5045 4.87737 11.7234 4.9752 12.0001 4.9752C12.2768 4.9752 12.4955 4.87737 12.6563 4.68166C12.8706 4.43265 13.1386 4.15926 13.4599 3.86133C13.7814 3.56355 14.1676 3.24362 14.6183 2.90094C15.0693 2.55863 15.5626 2.27407 16.0984 2.04735C16.634 1.82057 17.1342 1.70728 17.5985 1.70728C18.0627 1.70728 18.5 1.74284 18.9109 1.81385C19.3216 1.88491 19.7412 2.02282 20.1699 2.22731C20.5985 2.43193 20.9623 2.69645 21.2613 3.02096C21.5604 3.34551 21.806 3.78359 21.998 4.33487C22.1897 4.88606 22.2857 5.52194 22.2857 6.24211C22.2856 7.73603 21.4465 9.31899 19.7678 10.9905Z" fill="#E253B6"/>
</svg>
