<svg width="28" height="28" viewBox="0 0 28 28" fill="none" xmlns="http://www.w3.org/2000/svg">
<path d="M8.27946e-07 8.23529H9.55294V8.27946e-07H8.27946e-07V8.23529ZM1.64706 1.64706H7.90588V6.58824H1.64706V1.64706Z" fill="#343434"/>
<path d="M0 28H9.55294V10.102H0V28ZM1.64706 11.749H7.90588V18.8848L5.91931 20.5403L3.45882 19.7202L1.64706 20.3241V11.749ZM1.64706 22.0602L3.45882 21.4563L6.26892 22.393L7.90588 21.0289V26.3529H1.64706V22.0602Z" fill="#343434"/>
<path d="M11.4196 28H28V18.4471H11.4196V28ZM13.0667 20.0941H26.3529V26.3529H13.0667V20.0941Z" fill="#343434"/>
<path d="M11.4196 0V16.5804H28V0H11.4196ZM22.4 14.9333H17.0196V13.2336C17.0196 11.9306 18.0797 10.8706 19.3826 10.8706H20.037C21.34 10.8706 22.4 11.9306 22.4 13.2336V14.9333ZM18.3373 7.85098C18.3373 7.09416 18.953 6.47843 19.7098 6.47843C20.4666 6.47843 21.0824 7.09416 21.0824 7.85098C21.0824 8.6078 20.4666 9.22353 19.7098 9.22353C18.953 9.22353 18.3373 8.6078 18.3373 7.85098ZM26.3529 14.9333H24.0471V13.2336C24.0471 11.7534 23.2403 10.4589 22.0441 9.7642C23.6522 7.8058 22.2546 4.83137 19.7098 4.83137C17.163 4.83137 15.7683 7.80684 17.3755 9.7642C16.1793 10.4589 15.3725 11.7534 15.3725 13.2336V14.9333H13.0667V1.64706H26.3529V14.9333Z" fill="#343434"/>
<path d="M4.78465 16.5162C5.69218 16.5162 6.43056 15.7778 6.43056 14.8702C6.43056 13.9627 5.69223 13.2243 4.78465 13.2243C3.87707 13.2243 3.13874 13.9627 3.13874 14.8702C3.13874 15.7778 3.87707 16.5162 4.78465 16.5162Z" fill="#343434"/>
</svg>
