<svg width="24" height="28" viewBox="0 0 24 28" fill="none" xmlns="http://www.w3.org/2000/svg">
<path fill-rule="evenodd" clip-rule="evenodd" d="M1.66229 24.7734V24.2813H17.5799C17.5799 24.8255 17.5413 25.1649 17.7046 25.6839L17.9513 26.3594H4.58051C3.83153 26.3594 3.05558 26.4338 2.52705 26.179C2.06392 25.9557 1.66229 25.4526 1.66229 24.7734ZM7.87016 6.94529H19.3308V5.24998H7.87016V6.94529ZM8.13546 10.2266H19.0656V19.1406H8.13546V10.2266ZM6.54372 20.8359H20.6574V8.53124H6.54372V20.8359ZM4.84582 3.28122H22.3552V24.8828C22.3552 25.896 21.0944 26.6954 20.1099 26.2127C19.5171 25.922 19.1717 25.3594 19.1717 24.6093V22.5859H4.84582V3.28122ZM4.79274 1.64061H3.20099V22.5859H0.017463C0.017463 24.1962 -0.193669 25.8513 0.852321 26.9207C1.37436 27.4545 2.10263 28 2.93569 28H21.0818C21.5208 28 21.9555 27.7948 22.2671 27.6357C23.2906 27.1132 24 25.9876 24 24.6094V1.64061H22.4083V0H20.7634V1.64061H6.43756V0H4.79274V1.64061Z" fill="#343434"/>
</svg>
