<svg width="24" height="24" viewBox="0 0 24 24" fill="none" xmlns="http://www.w3.org/2000/svg">
<path fill-rule="evenodd" clip-rule="evenodd" d="M0 22.6156V23.1925C0 23.5739 0.426162 24 0.807624 24H23.1924C23.5526 24 24 23.5526 24 23.1925C24 21.512 23.8487 20.6262 23.3587 19.1613C22.6526 17.0505 21.2886 15.1182 19.5502 13.7397C19.1241 13.4017 18.1284 12.6314 17.6538 12.5208C17.5285 12.6047 17.5213 12.632 17.4085 12.737C16.4585 13.6216 15.0681 14.2493 13.8006 14.5519C12.1159 14.9541 10.3223 14.7566 8.75159 14.0959C7.21033 13.4475 6.93995 12.9185 6.34604 12.5209C5.60726 12.693 3.73775 14.2725 3.1589 14.9296C1.34571 16.9882 0 19.7543 0 22.6156Z" fill="#E253B6"/>
<path fill-rule="evenodd" clip-rule="evenodd" d="M5.53848 6.17559C5.53848 8.1445 6.03814 9.65022 7.39905 11.0067C8.45636 12.0605 10.0491 12.9247 11.5962 12.9247C12.7982 12.9247 13.6841 12.8499 14.7659 12.2869C15.8318 11.7321 16.9398 10.7954 17.5364 9.74996C18.6243 7.8434 18.8268 5.62448 17.8272 3.6372C17.1323 2.25563 16.1627 1.30777 14.7507 0.598657C12.9968 -0.282196 10.4098 -0.186686 8.75736 0.856684C6.92509 2.01351 5.53848 3.92133 5.53848 6.17559Z" fill="#E253B6"/>
</svg>
