<svg width="11" height="12" viewBox="0 0 11 12" fill="none" xmlns="http://www.w3.org/2000/svg">
<path d="M10.5 6.76177C10.5 4.22283 8.67987 2.10176 6.27415 1.62506L7.52164 0.62939L7.01683 -1.52254e-07L4.9976 1.61177C4.89946 1.69034 4.84616 1.8072 4.84616 1.92647C4.84616 1.98731 4.8599 2.04895 4.88856 2.10659L6.10011 4.52423L6.82259 4.1636L5.93251 2.38704C8.05836 2.71664 9.69231 4.54962 9.69231 6.76177C9.69231 9.20562 7.69934 11.1941 5.25 11.1941C2.80066 11.1941 0.807685 9.20562 0.807686 6.76177L6.58108e-07 6.76177C5.31858e-07 9.65004 2.35524 12 5.25 12C8.14476 12 10.5 9.65004 10.5 6.76177Z" fill="#E253B6"/>
</svg>
