<svg width="32" height="28" viewBox="0 0 32 28" fill="none" xmlns="http://www.w3.org/2000/svg">
<path d="M31.5944 6.70852H22.3654C23.8171 5.14429 23.7831 2.69121 22.2616 1.16974C21.5073 0.415357 20.5043 0 19.4376 0C18.3708 0 17.3679 0.415356 16.6136 1.16967C16.2892 1.49401 16.0204 1.99996 15.7971 2.61185C15.5739 1.99996 15.305 1.49401 14.9807 1.16974C14.2264 0.415418 13.2235 0 12.1567 0C11.09 0 10.087 0.415357 9.33272 1.16974C7.81124 2.69121 7.77724 5.14429 9.22892 6.70852H0V14.0019H1.8513V28H29.743V14.0019H31.5944V6.70852ZM17.9572 8.55976V12.1506H13.6372V8.55976H17.9572ZM17.9572 14.0019V26.1488H13.6372V14.0019H17.9572ZM17.9226 2.47875C18.3273 2.07407 18.8653 1.85124 19.4376 1.85124C20.0099 1.85124 20.5479 2.07407 20.9526 2.47875C21.3573 2.88343 21.5801 3.4214 21.5801 3.99374C21.5801 4.56596 21.3573 5.10405 20.9526 5.50873C20.4683 5.99296 18.6209 6.41492 16.836 6.61528C17.1199 4.32493 17.5743 2.82709 17.9226 2.47875ZM10.6417 2.47875C11.0464 2.07407 11.5844 1.85124 12.1567 1.85124C12.729 1.85124 13.267 2.07407 13.6717 2.47881C14.02 2.82703 14.4743 4.32481 14.7583 6.61522C12.9734 6.41485 11.126 5.99289 10.6417 5.50867C9.80639 4.67339 9.80639 3.31415 10.6417 2.47875ZM1.85124 8.55976H11.7859V12.1506H1.85124V8.55976ZM3.70254 14.0019H11.7859V26.1488H3.70254V14.0019ZM27.8918 26.1488H19.8084V14.0019H27.8918V26.1488ZM29.7431 12.1507H19.8084V8.55982H29.7431V12.1507Z" fill="#343434"/>
</svg>
