<svg width="23" height="27" viewBox="0 0 23 27" fill="none" xmlns="http://www.w3.org/2000/svg">
<path d="M22.9917 25.2735L21.5001 6.81491C21.4706 6.45078 21.1665 6.17022 20.8012 6.17022H16.7968V5.28255C16.7968 2.36974 14.4583 0 11.5454 0H11.4528C8.54 0 6.13913 2.36974 6.13913 5.28255V6.17022H2.19702C1.83166 6.17022 1.52755 6.45078 1.4981 6.81491L0.00228756 25.3256C-0.0135119 25.5208 0.0530516 25.7135 0.185805 25.8574C0.318558 26.0013 0.505534 26.0832 0.701205 26.0832H22.297C22.2975 26.0832 22.2983 26.0832 22.2988 26.0832C22.6862 26.0832 23 25.7694 23 25.382C23 25.3451 22.9972 25.3088 22.9917 25.2735ZM7.54145 5.28255C7.54145 3.14298 9.31324 1.40232 11.4528 1.40232H11.5454C13.6849 1.40232 15.3945 3.14298 15.3945 5.28255V6.17022H7.54145V5.28255Z" fill="#E253B6"/>
</svg>
