<svg width="28" height="28" viewBox="0 0 28 28" fill="none" xmlns="http://www.w3.org/2000/svg">
<path fill-rule="evenodd" clip-rule="evenodd" d="M21.8204 15.2032H23.7344V22.2031H21.8204V15.2032ZM20.125 18.8672V22.2031H16.1328C16.2598 22.0136 17.8085 20.7932 18.1144 20.5206C18.4462 20.2248 18.7501 19.9733 19.0937 19.6952C19.3692 19.4721 19.8441 19.0159 20.125 18.8672ZM7.38285 18.8672C7.53663 18.9083 8.75236 19.9463 8.90032 20.0841L10.383 21.3358C10.5539 21.4738 11.258 22.0284 11.375 22.2031H7.38285V18.8672ZM3.77346 15.2032H5.68752V22.2031H3.77346V15.2032ZM14.6016 21.2188V19.1954C14.7679 19.1509 15.3374 18.6182 15.5149 18.468L17.8692 16.4472C18.0411 16.2835 19.2877 15.2032 19.4141 15.2032H20.125V16.6797C19.9239 16.7334 18.9297 17.6369 18.7264 17.7968L17.3592 18.9452C16.8782 19.3233 14.9062 21.0576 14.6016 21.2188ZM7.38285 16.5157V15.2032C8.46354 15.2032 8.04154 15.0952 9.31327 16.1712L9.91125 16.6669C10.1034 16.8381 10.2975 17.0232 10.492 17.1799L12.9063 19.1954V21.2188C12.6502 21.0473 12.4451 20.8669 12.2075 20.6597C11.9746 20.4566 11.7624 20.2892 11.5222 20.0872C10.507 19.2341 8.62992 17.6006 7.67911 16.8756C7.57217 16.7941 7.38285 16.6642 7.38285 16.5157ZM14.6016 17.0078L14.5988 14.9816C14.5953 14.6287 14.5622 14.6242 14.7859 14.4578L15.9061 13.4998C16.0389 13.3925 16.1766 13.2603 16.2969 13.1797C16.5262 13.2409 17.1641 13.8602 17.3988 14.0465C17.5278 14.1489 17.6308 14.2514 17.7188 14.3828C17.5906 14.4687 17.4416 14.5832 17.3223 14.6972L14.6016 17.0078ZM11.211 13.125C11.3288 13.301 12.5273 14.2985 12.6974 14.4277C13.0111 14.666 12.9063 14.9083 12.9063 15.586C12.9063 16.0599 12.9063 16.5339 12.9063 17.0078L9.78909 14.3828L11.211 13.125ZM21.8204 6.23439H23.7344V13.5078H21.8204V6.23439ZM3.7735 6.23439H5.68756V13.5078H3.7735V6.23439ZM12.5235 12.0313C12.6063 11.9077 12.9922 11.5865 13.1251 11.4844C13.258 11.3823 13.6439 11.0611 13.7266 10.9375C13.8967 11.0513 14.8579 11.8422 14.9845 12.0313C14.7774 12.3404 13.9403 12.908 13.7813 13.125C13.4673 12.9147 13.0755 12.5181 12.8284 12.3279C12.6663 12.2032 12.6327 12.1943 12.5235 12.0313ZM14.6016 7.38281C14.7516 7.42286 16.1266 8.61716 16.3379 8.81841L19.4608 11.4924C20.3288 12.1918 20.1251 11.826 20.1251 13.5078C19.1402 13.5078 19.4656 13.5734 19.0312 13.2346C18.8833 13.1192 18.7967 13.0201 18.6485 12.9062C18.4002 12.7155 18.1738 12.475 17.9144 12.2731C17.6446 12.0632 17.4344 11.8455 17.18 11.6404L14.9681 9.75077C14.5032 9.36005 14.6004 9.56193 14.6016 8.75003C14.6023 8.29433 14.6016 7.83855 14.6016 7.38281ZM8.09383 13.5078H7.38288C7.38288 11.8874 7.25912 12.1801 7.66868 11.8249L12.9063 7.38281C12.9063 7.83855 12.9057 8.29433 12.9064 8.75003C12.9075 9.48252 13.0007 9.40707 12.5467 9.75753C12.036 10.1518 8.27078 13.5078 8.09383 13.5078ZM15.9141 6.23439H20.1251V9.84377C20.0061 9.76409 19.9995 9.73825 19.8925 9.6388C19.0571 8.86214 16.8475 7.04569 15.9141 6.23439ZM7.38288 9.84377V6.23439H11.5938C11.4189 6.38644 11.2831 6.51121 11.0936 6.66385L7.38288 9.84377ZM23.7344 3.33593V4.53907H22.7501C22.8864 4.33549 23.0604 4.12306 23.225 3.92028C23.38 3.72939 23.553 3.45743 23.7344 3.33593ZM17.3907 2.18751C17.6824 2.62314 19.0517 4.26763 19.1954 4.53907H15.5313L17.3907 2.18751ZM10.1719 2.18751C10.3202 2.40902 10.4496 2.57262 10.6166 2.78188L11.9766 4.53907H8.31253L10.1719 2.18751ZM3.77346 3.28125L4.75783 4.53907H3.77346V3.28125ZM19.1406 1.69532H22.8047L20.9453 4.04688C20.8971 3.86643 20.6318 3.60394 20.5078 3.44533L19.1406 1.69532ZM11.9219 1.69532H15.5859L13.7266 4.04688L12.372 2.28422C12.2016 2.07707 12.0666 1.91153 11.9219 1.69532ZM4.70312 1.69532H8.36718C8.09484 2.102 7.77347 2.46977 7.46114 2.86739L6.50781 4.04688C6.36217 3.77163 4.99665 2.13366 4.70312 1.69532ZM0 1.69532H2.07811V28H3.77343V23.8984H6.39844V28H8.09376V23.8984H10.7187V28H12.4141V23.8984H15.0938V28H16.7891V23.8984H19.4141V28H21.1094V23.8984H23.7344V28H25.4297V1.69532H27.8906V0H3.46756e-05L0 1.69532Z" fill="#343434"/>
</svg>
