<svg width="24" height="24" viewBox="0 0 24 24" fill="none" xmlns="http://www.w3.org/2000/svg">
<path d="M23.0008 15.1147C22.4473 15.1147 22.0016 15.559 22.0016 16.1107V22.0033H1.99837V16.1107C1.99837 15.559 1.55265 15.1147 0.999184 15.1147C0.445714 15.1147 0 15.559 0 16.1107V23.0041C0 23.5557 0.445714 24 0.999184 24H23.0008C23.5543 24 24 23.5557 24 23.0041V16.1107C24 15.559 23.5543 15.1147 23.0008 15.1147Z" fill="#343434"/>
<path d="M11.2947 16.76C11.8384 17.2823 12.4898 17.0138 12.7102 16.76L18.7935 10.7014C19.1853 10.3108 19.1853 9.68104 18.7935 9.29048C18.4016 8.89992 17.7698 8.89992 17.378 9.29048L12.9992 13.6501V0.995932C12.9992 0.444264 12.5535 0 12 0C11.4465 0 11.0008 0.444264 11.0008 0.995932V13.6452L6.62204 9.2856C6.2302 8.89504 5.59837 8.89504 5.20653 9.2856C4.81469 9.67616 4.81469 10.3059 5.20653 10.6965L11.2947 16.76Z" fill="#343434"/>
</svg>
