<svg width="22" height="24" viewBox="0 0 22 24" fill="none" xmlns="http://www.w3.org/2000/svg">
<path fill-rule="evenodd" clip-rule="evenodd" d="M0.00981671 8.83349C0.00981671 11.9883 -0.235868 14.5447 1.73095 17.0574C1.85479 17.2156 1.96842 17.3713 2.10047 17.507C2.26487 17.6756 2.30618 17.7501 2.45178 17.9161C2.75443 18.2617 4.25935 19.4116 4.80682 19.5391L4.80596 23.1671C4.79137 24.8511 5.89575 23.5105 6.1963 23.21L8.91467 20.4879C9.32924 20.2067 13.2153 20.7363 15.6635 20.0411C17.0116 19.6583 18.1458 18.8993 19.1337 17.9537L19.1922 17.8952C19.2039 17.883 19.236 17.8461 19.2474 17.8336L19.9088 17.0909C20.1605 16.7689 20.412 16.3645 20.6208 15.9894C21.8569 13.7696 21.6551 11.4868 21.6551 8.95065C21.6551 6.59055 20.9723 4.31976 19.3893 2.67524C18.6931 1.95212 17.8855 1.33051 16.9363 0.85775C16.0599 0.421242 14.7452 0 13.465 0H8.25843C4.94364 0 1.89162 2.19513 0.66081 5.21405C0.235847 6.25623 0.00991212 7.37903 0.00991212 8.83368L0.00981671 8.83349Z" fill="#645AA9"/>
<path fill-rule="evenodd" clip-rule="evenodd" d="M7.94032 9.63118C7.94032 11.2637 11.523 14.911 12.6411 12.6355C12.8554 12.1993 13.1687 11.7957 13.7318 11.7957C14.5768 11.7957 15.5098 13.1411 16.145 13.77C16.825 14.4434 16.8512 15.1466 16.1467 15.8485L15.326 16.6073C14.6674 17.2671 14.1424 17.4228 13.0326 17.1749C10.9244 16.704 8.01398 14.3502 6.68614 12.6402C5.58118 11.217 4.1377 9.28284 4.1377 7.34961C4.1377 6.12271 5.00231 5.68191 5.8178 4.87616C6.40133 4.29949 7.19268 4.55586 7.72288 5.10992L8.39353 5.84315C8.75981 6.20944 9.57825 6.82666 9.57825 7.46658C9.57825 8.58633 8.62662 8.49769 8.24745 8.94393C8.11912 9.09497 7.94023 9.37806 7.94023 9.63118H7.94032ZM11.5088 6.82313C11.5088 6.0522 13.0073 6.65444 13.3063 6.89774C13.5639 7.10745 13.7653 7.31249 13.9428 7.60674C14.2127 8.05489 14.2584 8.33778 14.2584 8.87056C14.2584 9.16748 13.6923 9.36823 13.5346 8.95118C13.4642 8.76523 13.5494 7.68526 12.4401 7.2957C12.0885 7.17224 11.5087 7.28931 11.5087 6.82303L11.5088 6.82313ZM11.0993 5.24368C11.0993 4.33308 14.8321 4.7234 15.7291 7.751C15.8322 8.09906 16.0838 9.5727 15.5454 9.5727C14.652 9.5727 15.4592 8.90892 14.8438 7.52478C14.7512 7.31612 14.6111 7.09553 14.4682 6.90594C14.3901 6.80223 14.32 6.71369 14.2347 6.61284C14.1365 6.49672 14.0623 6.46237 13.9532 6.36792C13.3841 5.87454 12.5237 5.54118 11.6849 5.60024C11.4961 5.6135 11.4571 5.66302 11.3 5.57323C11.1955 5.51341 11.0993 5.37583 11.0993 5.24368ZM11.5673 3.25464C13.1692 3.25464 14.318 3.58142 15.5049 4.582C18.1161 6.78315 17.5885 10.3918 17.0079 10.3918C16.2998 10.3918 16.7153 9.7326 16.7153 8.87075C16.7153 6.38061 14.9216 4.47075 12.7306 4.08043C12.4541 4.03119 11.495 4.04131 11.3548 3.99341C10.9886 3.86813 11.0317 3.25473 11.5672 3.25473L11.5673 3.25464Z" fill="white"/>
</svg>
