<svg width="24" height="16" viewBox="0 0 24 16" fill="none" xmlns="http://www.w3.org/2000/svg">
<path d="M23.8475 7.18155C23.6331 6.88825 18.5245 0 11.9999 0C5.4753 0 0.36647 6.88825 0.152297 7.18127C-0.0507658 7.45952 -0.0507658 7.83691 0.152297 8.11516C0.36647 8.40846 5.4753 15.2967 11.9999 15.2967C18.5245 15.2967 23.6331 8.40842 23.8475 8.1154C24.0508 7.8372 24.0508 7.45952 23.8475 7.18155ZM11.9999 13.7143C7.19383 13.7143 3.03127 9.14243 1.79907 7.64782C3.02968 6.15189 7.18352 1.58241 11.9999 1.58241C16.8057 1.58241 20.968 6.15349 22.2007 7.6489C20.9701 9.14478 16.8163 13.7143 11.9999 13.7143Z" fill="#343434"/>
<path d="M11.9999 2.9011C9.38229 2.9011 7.25261 5.03078 7.25261 7.64838C7.25261 10.266 9.38229 12.3957 11.9999 12.3957C14.6175 12.3957 16.7472 10.266 16.7472 7.64838C16.7472 5.03078 14.6175 2.9011 11.9999 2.9011ZM11.9999 10.8132C10.2547 10.8132 8.83507 9.3935 8.83507 7.64838C8.83507 5.90327 10.2548 4.48356 11.9999 4.48356C13.745 4.48356 15.1647 5.90327 15.1647 7.64838C15.1647 9.3935 13.7451 10.8132 11.9999 10.8132Z" fill="#343434"/>
</svg>
