<svg width="16" height="14" viewBox="0 0 16 14" fill="none" xmlns="http://www.w3.org/2000/svg">
<path opacity="0.4" d="M15.3333 6.06325H2.03367L7.12633 1.16158C7.393 0.904911 7.40333 0.478474 7.14933 0.209004C6.89567 -0.0601297 6.47367 -0.0709086 6.20667 0.185762L0.390667 5.78401C0.139 6.03866 0 6.37684 0 6.73692C0 7.09667 0.139 7.43519 0.402333 7.70095L6.207 13.2878C6.336 13.412 6.50133 13.4737 6.66667 13.4737C6.84267 13.4737 7.01867 13.4036 7.14967 13.2645C7.40367 12.995 7.39333 12.5689 7.12667 12.3123L2.01267 7.4106H15.3333C15.7013 7.4106 16 7.10879 16 6.73692C16 6.36506 15.7013 6.06325 15.3333 6.06325Z" fill="#343434"/>
</svg>
