<svg width="55" height="55" viewBox="0 0 55 55" fill="none" xmlns="http://www.w3.org/2000/svg">
<path d="M54.9079 12.6957C54.7872 12.4027 54.554 12.1696 54.2611 12.0488C54.1152 11.989 53.9598 11.9568 53.8043 11.9568H39.9515L28.3453 0.350623C27.8778 -0.116874 27.1222 -0.116874 26.6547 0.350623L15.0485 11.9568H1.19565C1.04022 11.9568 0.884783 11.989 0.738913 12.0488C0.445978 12.1696 0.212826 12.4027 0.0920652 12.6957C0.0322826 12.8415 0 12.997 0 13.1524V53.8044C0 53.9598 0.0322826 54.1152 0.0920652 54.2611C0.212826 54.554 0.445978 54.7872 0.738913 54.9079C0.884783 54.9677 1.04022 55 1.19565 55H53.8043C53.9598 55 54.1152 54.9677 54.2611 54.9079C54.554 54.7872 54.7872 54.554 54.9079 54.2611C54.9689 54.1152 55 53.9598 55 53.8044V13.1524C55 12.997 54.9689 12.8415 54.9079 12.6957ZM27.5 2.88659L36.5702 11.9568H18.4298L27.5 2.88659ZM50.918 14.348L46.1354 19.1306H8.86456L4.08196 14.348H50.918ZM45.4348 21.5219V45.4348H9.56522V21.5219H45.4348ZM2.3913 16.0387L7.17391 20.8213V46.1355L2.3913 50.9181V16.0387ZM4.08196 52.6087L8.86456 47.8261H46.1354L50.918 52.6087H4.08196ZM52.6087 50.9181L47.8261 46.1355V20.8213L52.6087 16.0387V50.9181Z" fill="#FFC0EF"/>
</svg>
