<svg width="60" height="55" viewBox="0 0 60 55" fill="none" xmlns="http://www.w3.org/2000/svg">
<path fill-rule="evenodd" clip-rule="evenodd" d="M24.7024 49.7586C22.783 49.7586 21.5604 47.3898 22.6993 45.9091L23.5714 44.9213C24.722 43.5468 26.6083 42.8474 27.9134 44.2427C28.391 44.7533 28.5478 45.1826 28.5478 46.047C28.5478 47.1904 27.7262 47.7347 27.1203 48.3377C26.4097 49.0451 25.8569 49.7586 24.7024 49.7586ZM17.9437 45.2351C16.5732 45.2351 15.4966 44.2032 15.4966 42.5674C15.4966 41.3377 16.9263 40.2745 17.6232 39.5807C18.7523 38.4568 19.2379 37.464 20.9734 37.464C22.7643 37.464 24.305 39.8862 22.345 41.8448C21.1176 43.0714 19.3517 45.2351 17.9437 45.2351ZM10.952 40.9436C9.36185 40.9436 8.38834 39.9746 8.38834 38.3919C8.38834 37.011 10.2937 35.5095 11.0977 34.7093C12.6788 33.1355 13.3496 31.8966 15.2636 31.8966C16.5456 31.8966 17.4776 32.9388 17.4776 34.4483C17.4776 35.7143 15.8208 36.9673 14.6518 38.1309C14.0795 38.7005 13.5924 39.1849 13.0204 39.7547C12.4717 40.3012 12.0002 40.9436 10.952 40.9436ZM6.52392 33.8684C4.32651 33.8684 3.50777 31.3985 4.52018 30.0181L7.48413 27.053C8.1824 26.3453 8.94886 25.9246 10.1817 26.2825C11.1422 26.5612 11.8842 27.4686 11.8842 28.649C11.8842 30.0265 9.64459 31.9011 8.42009 33.088C7.93552 33.5578 7.44091 33.8684 6.52392 33.8684ZM24.1197 3.82768C24.891 3.82768 25.7185 3.9835 26.3701 4.25557C26.9401 4.49355 27.2767 4.79999 27.7322 5.10354C27.2112 5.8779 20.676 12.0748 19.0802 13.8899C18.2587 14.8244 17.9438 16.1161 17.9438 17.3982C17.9438 19.5549 19.1572 21.2631 20.8924 22.1184C23.2533 23.2822 25.7786 22.7812 27.5868 20.965C29.058 19.4873 32.8333 15.489 34.3725 14.3807C37.4921 12.1344 39.5508 15.1853 41.6282 17.2531L52.4654 28.0399C53.1094 28.6809 54.1842 29.5456 54.1842 30.7366C54.1842 32.7483 51.8429 34.1209 50.2525 32.7942C48.6453 31.4536 45.9641 28.3589 44.8862 27.5807C43.989 26.9329 42.4148 27.5185 42.4148 28.7648C42.4148 29.8059 43.8114 30.7929 44.4832 31.4615L49.2608 36.217C49.9814 36.9343 51.1544 37.7515 51.1544 39.0876C51.1544 40.5154 49.9404 41.5234 48.5908 41.5234C47.1068 41.5234 44.921 38.8567 43.9005 37.8408L41.7447 35.8111C41.1767 35.244 40.2475 33.9842 39.2685 33.9842C38.2156 33.9842 37.7536 34.8328 37.7536 35.724C37.7536 36.4452 38.9278 37.2987 39.4141 37.7828C40.0835 38.449 40.6674 39.0303 41.3368 39.6966C41.9866 40.3433 42.5546 40.9022 43.2008 41.5529C44.3283 42.6883 44.7454 42.7165 44.7454 44.5391C44.7454 45.0218 44.3086 45.6547 44.0167 45.9016C43.5377 46.3068 42.9043 46.5109 42.1817 46.5109C40.8511 46.5109 39.5811 44.7922 38.715 43.9301C38.0643 43.2825 36.3066 41.1754 35.423 41.1754C34.5606 41.1754 33.6751 41.4923 33.6751 42.5672C33.6751 43.7708 35.4033 45.0413 36.2096 45.8439C36.8887 46.5199 38.8024 48.0816 38.8024 49.0625C38.8024 50.2152 38.5307 51.3084 37.3962 51.7231C34.7227 52.7004 33.1899 49.1327 31.3445 47.9027C31.7344 46.2371 31.9616 45.3139 31.208 43.6311C30.8146 42.7527 30.2174 42.0411 29.447 41.4404C28.6483 40.8177 27.4577 40.3635 26.3338 40.3635C26.3338 38.6881 25.915 37.2836 24.7937 36.0972C24.317 35.5928 23.6951 35.2129 23.0744 34.9088C22.3379 34.548 21.4234 34.5176 20.6239 34.3322C20.6239 33.3956 20.4855 32.7784 20.194 32.0924C19.6864 30.8974 18.7492 29.9006 17.5973 29.3417C16.8704 28.9891 15.8452 28.7648 14.9141 28.7648C14.9141 27.4706 14.5928 26.228 13.7866 25.2475C13.5619 24.9742 13.4574 24.7893 13.1963 24.5592C11.7119 23.2509 9.32028 22.653 7.30389 23.5098C6.55203 23.8292 6.28944 24.086 5.70831 24.4733C4.6051 23.738 2.84396 20.9937 1.51326 20.9937C0.0119998 20.9937 -0.526377 22.6527 0.608541 23.75C1.48723 24.5995 2.52025 25.9119 3.49422 26.5611C3.25403 26.9181 2.99776 27.0691 2.7129 27.4072C1.11263 29.3065 0.419741 31.423 1.54916 33.8325C1.81047 34.3899 2.11022 34.7625 2.49265 35.2131C2.74046 35.5051 3.44605 36.0288 3.80528 36.2263C4.05597 36.3642 4.31805 36.5014 4.58889 36.6063C4.93512 36.7402 5.1947 36.75 5.47523 36.8839C5.45652 37.7199 4.45863 40.049 6.89936 42.4256C7.5892 43.0974 8.58438 43.7295 9.60001 43.9131C10.7553 44.1219 11.3855 43.9899 12.4635 43.8228C12.9962 46.1109 14.9366 48.2507 17.4777 48.2507C19.9782 48.2507 18.8165 47.6063 19.6863 49.5319C19.9886 50.201 20.2045 50.5617 20.7091 51.0656C22.5618 52.9159 25.4415 53.3952 27.7295 51.9596C28.3924 51.5436 28.8484 50.8755 29.4801 50.4545C30.9102 51.4076 31.9282 53.174 33.9272 54.3791C35.8265 55.524 38.3202 54.964 39.9533 53.6878C41.1505 52.7521 41.9487 51.2321 41.9487 49.6426C43.5783 49.6426 45.0033 49.206 46.1604 48.1514C47.1713 47.23 47.7748 45.9364 47.8916 44.5391C49.6634 45.0069 51.8034 44.0303 52.8895 42.6706C54.5031 40.6507 54.561 38.3153 53.3685 36.0721C56.5449 35.3355 58.6826 30.9736 56.1671 27.4871C55.9256 27.1523 55.6908 27.0113 55.466 26.6772C56.193 25.5966 59.661 23.0889 59.661 21.9217C59.661 20.9835 59.1015 20.1792 58.0775 20.2537C56.6696 20.356 54.3114 23.6896 53.1354 24.4734C52.7862 23.9542 51.808 23.0942 51.3001 22.5886C50.6307 21.9224 50.0467 21.3411 49.3773 20.6748C47.4576 18.764 41.4343 12.4261 39.571 11.2977C38.8517 10.8622 37.5432 10.4389 36.4718 10.4389C33.34 10.4389 31.2607 13.0161 29.6257 14.6434C28.6844 15.5804 27.8286 16.4322 26.8873 17.3691C26.1789 18.0743 24.8811 19.7179 23.6536 19.7179C21.6629 19.7179 20.4336 17.8177 21.3151 16.1143C21.7375 15.2982 30.3389 6.96047 31.3714 5.94207C34.2156 3.13641 37.9535 3.0157 41.9486 3.0157C44.2005 3.0157 46.4568 3.00167 48.7081 3.01654C49.731 3.02328 50.6309 2.93821 50.868 1.79171C51.0519 0.902324 50.2038 4.21352e-05 49.4065 4.21352e-05H38.4527C35.5254 4.21352e-05 33.1782 0.881552 30.9297 2.3709C30.6076 2.58428 30.3504 2.82394 30.0627 3.0157C29.2393 2.46689 28.5576 1.92103 27.6553 1.46824C25.144 0.208148 22.274 0.616227 20.0877 2.25014C19.649 2.57804 19.4244 2.9597 18.9924 3.24765C17.9209 2.53342 16.341 0 15.0304 0C13.6915 0 12.6526 1.42472 14.3016 3.04515C15.2876 4.01409 16.1778 4.91089 17.1571 5.88632C17.6219 6.3493 17.9831 6.92179 18.8149 7.01386C19.9523 7.13976 20.5983 5.96819 21.2915 5.30406C22.0143 4.61144 22.9476 3.82768 24.1197 3.82768Z" fill="#FFC0EF"/>
</svg>
