<svg width="57" height="57" viewBox="0 0 57 57" fill="none" xmlns="http://www.w3.org/2000/svg">
<path d="M28.1823 44.6924C27.889 44.6924 27.5957 44.5801 27.3711 44.3578L12.6423 29.6286C12.2115 29.1977 12.1932 28.5079 12.5965 28.0541L23.6356 15.6877C31.3518 6.6604 43.9171 0.818665 54.8737 1.0043C55.4856 1.01805 55.9783 1.51078 55.9921 2.12268C56.2465 13.0865 50.3385 25.6455 41.2886 33.3779L28.9432 44.4013C28.7278 44.5961 28.4528 44.6924 28.1823 44.6924ZM15.028 28.7737L28.2259 41.972L39.7829 31.6545C48.0468 24.5912 53.5354 13.334 53.705 3.29378C43.665 3.46108 32.4105 8.94988 25.3613 17.1957L15.028 28.7737Z" fill="#FFC0EF"/>
<path d="M32.5709 53.0803C32.4609 53.0803 32.3486 53.0642 32.2432 53.0299C31.8307 52.8924 31.4915 52.5761 31.432 52.1452L29.8599 41.1745C29.7705 40.5489 30.2059 39.969 30.8315 39.8774C31.4572 39.7788 32.037 40.2211 32.1286 40.8491L33.357 49.4203C37.372 44.619 39.6042 38.5321 39.6042 32.326C39.6042 31.6934 40.1175 31.1801 40.75 31.1801C41.3825 31.1801 41.8959 31.6934 41.8959 32.326C41.8959 39.9186 38.8204 47.3508 33.4578 52.7113C33.2286 52.9405 32.8941 53.0803 32.5709 53.0803Z" fill="#FFC0EF"/>
<path d="M15.9905 27.1511C15.9378 27.1511 15.8828 27.1489 15.8278 27.1397L4.85742 25.5675C4.42658 25.5057 4.06679 25.2054 3.93158 24.7906C3.79637 24.3781 3.90637 23.922 4.21575 23.6172C9.65395 18.1789 17.0836 15.1033 24.676 15.1033C25.3085 15.1033 25.8219 15.6167 25.8219 16.2492C25.8219 16.8817 25.3085 17.3951 24.676 17.3951C18.4403 17.3951 12.3215 19.6479 7.57079 23.6402L16.1532 24.8708C16.7788 24.9625 17.2143 25.54 17.1249 26.168C17.0401 26.7386 16.5497 27.1511 15.9905 27.1511Z" fill="#FFC0EF"/>
<path d="M40.2642 22.4622C38.7952 22.4622 37.3285 21.903 36.2124 20.7869C33.9803 18.5524 33.9803 14.9177 36.2124 12.6832C38.4468 10.4487 42.0815 10.4487 44.3159 12.6832C46.548 14.9177 46.548 18.5524 44.3159 20.7869C43.1975 21.9053 41.7309 22.4622 40.2642 22.4622ZM40.2642 13.2997C39.3842 13.2997 38.5019 13.6343 37.8327 14.3035C36.4943 15.6442 36.4943 17.8259 37.8327 19.1666C39.1733 20.505 41.355 20.5027 42.6957 19.1666C44.034 17.8259 44.034 15.6442 42.6957 14.3035C42.0242 13.6366 41.1442 13.2997 40.2642 13.2997Z" fill="#FFC0EF"/>
<path d="M2.14634 56C1.84613 56 1.55508 55.8831 1.33508 55.6654C1.03716 55.3675 0.927159 54.9297 1.04862 54.5264C1.42446 53.2728 4.79096 42.1944 7.24308 39.7422C10.0046 36.9806 14.4986 36.9783 17.2601 39.7422C20.0216 42.5037 20.0216 46.9979 17.2601 49.7595C14.808 52.2117 3.72991 55.5783 2.47635 55.9542C2.36635 55.984 2.25634 56 2.14634 56ZM12.2527 39.9599C11.0244 39.9599 9.79832 40.4274 8.86331 41.3601C7.541 42.6848 5.34097 48.5999 3.88803 53.1124C8.3981 51.6594 14.3153 49.4593 15.6376 48.1369C17.5053 46.2691 17.5053 43.2279 15.6376 41.3601C14.7049 40.4274 13.4788 39.9599 12.2527 39.9599Z" fill="#FFC0EF"/>
<path d="M43.5046 19.9779H43.5275M28.1823 44.6924C27.889 44.6924 27.5957 44.5801 27.3711 44.3578L12.6423 29.6286C12.2115 29.1977 12.1932 28.5079 12.5965 28.0541L23.6356 15.6877C31.3518 6.6604 43.9171 0.818665 54.8737 1.0043C55.4856 1.01805 55.9783 1.51078 55.9921 2.12268C56.2465 13.0865 50.3385 25.6455 41.2886 33.3779L28.9432 44.4013C28.7278 44.5961 28.4528 44.6924 28.1823 44.6924ZM15.028 28.7737L28.2259 41.972L39.7829 31.6545C48.0468 24.5912 53.5354 13.334 53.705 3.29378C43.665 3.46108 32.4105 8.94988 25.3613 17.1957L15.028 28.7737ZM32.5709 53.0803C32.4609 53.0803 32.3486 53.0642 32.2432 53.0299C31.8307 52.8924 31.4915 52.5761 31.432 52.1452L29.8599 41.1745C29.7705 40.5489 30.2059 39.969 30.8315 39.8774C31.4572 39.7788 32.037 40.2211 32.1286 40.8491L33.357 49.4203C37.372 44.619 39.6042 38.5321 39.6042 32.326C39.6042 31.6934 40.1175 31.1801 40.75 31.1801C41.3825 31.1801 41.8959 31.6934 41.8959 32.326C41.8959 39.9186 38.8204 47.3508 33.4578 52.7113C33.2287 52.9405 32.8941 53.0803 32.5709 53.0803ZM15.9905 27.1511C15.9378 27.1511 15.8828 27.1489 15.8278 27.1397L4.85742 25.5675C4.42658 25.5057 4.06679 25.2054 3.93158 24.7906C3.79637 24.3781 3.90637 23.922 4.21575 23.6172C9.65395 18.1789 17.0836 15.1033 24.676 15.1033C25.3085 15.1033 25.8219 15.6167 25.8219 16.2492C25.8219 16.8817 25.3085 17.3951 24.676 17.3951C18.4403 17.3951 12.3215 19.6479 7.57079 23.6402L16.1532 24.8708C16.7788 24.9625 17.2143 25.54 17.1249 26.168C17.0401 26.7386 16.5497 27.1511 15.9905 27.1511ZM40.2642 22.4622C38.7952 22.4622 37.3285 21.903 36.2124 20.7869C33.9803 18.5524 33.9803 14.9177 36.2124 12.6832C38.4469 10.4487 42.0815 10.4487 44.3159 12.6832C46.548 14.9177 46.548 18.5524 44.3159 20.7869C43.1975 21.9053 41.7309 22.4622 40.2642 22.4622ZM40.2642 13.2997C39.3842 13.2997 38.5019 13.6343 37.8327 14.3035C36.4943 15.6442 36.4943 17.8259 37.8327 19.1666C39.1733 20.505 41.355 20.5027 42.6957 19.1666C44.034 17.8259 44.034 15.6442 42.6957 14.3035C42.0242 13.6366 41.1442 13.2997 40.2642 13.2997ZM2.14634 56C1.84613 56 1.55508 55.8831 1.33508 55.6654C1.03716 55.3675 0.927159 54.9297 1.04862 54.5264C1.42446 53.2728 4.79096 42.1944 7.24308 39.7422C10.0046 36.9806 14.4986 36.9783 17.2601 39.7422C20.0216 42.5037 20.0216 46.9979 17.2601 49.7595C14.808 52.2117 3.72991 55.5783 2.47635 55.9542C2.36635 55.984 2.25634 56 2.14634 56ZM12.2527 39.9599C11.0244 39.9599 9.79832 40.4274 8.86331 41.3601C7.541 42.6848 5.34097 48.5999 3.88803 53.1124C8.3981 51.6594 14.3153 49.4593 15.6376 48.1369C17.5053 46.2691 17.5053 43.2279 15.6376 41.3601C14.7049 40.4274 13.4788 39.9599 12.2527 39.9599Z" stroke="#FFC0EF" stroke-width="0.7"/>
</svg>
