<svg width="56" height="56" viewBox="0 0 56 56" fill="none" xmlns="http://www.w3.org/2000/svg">
<path d="M45.8515 39.2816L43.484 43.7209L41.8634 42.0927L39.5432 44.4237L44.2892 49.1918L48.7437 40.8383L45.8515 39.2816Z" fill="#FFC0EF"/>
<path d="M28 0L0 10.132V45.6339L28.0001 55.7658L36.1356 52.821C38.2475 54.7924 41.0748 56 44.178 56C50.58 56 55.8097 50.8625 55.9983 44.4757L56 10.132L28 0ZM28 3.50391L49.5284 11.294L41.6207 14.1696L20.0821 6.36907L28 3.50391ZM26.3594 51.6682L3.28125 43.3174V13.6397L26.3594 22.032V51.6682ZM28 19.1228L6.47161 11.294L15.2422 8.12042L36.7928 15.9254L28 19.1228ZM52.7188 44.2794C52.6329 48.9389 48.836 52.7034 44.178 52.7034C39.4663 52.7034 35.6332 48.8524 35.6332 44.1188C35.6332 39.3851 39.4663 35.534 44.178 35.534C48.836 35.534 52.6329 39.2985 52.7188 43.958V44.2794ZM52.7188 35.9089C50.5644 33.6477 47.5322 32.2374 44.178 32.2374C37.657 32.2374 32.3519 37.5673 32.3519 44.1188C32.3519 46.2993 32.9403 48.3443 33.965 50.1028L29.6406 51.668V22.032L52.7188 13.6397V35.9089Z" fill="#FFC0EF"/>
</svg>
