<svg width="50" height="55" viewBox="0 0 50 55" fill="none" xmlns="http://www.w3.org/2000/svg">
<path d="M34.2801 6.76899H8.49694C7.57681 6.76899 6.83079 7.50827 6.83079 8.42007V33.97C6.83079 34.8818 7.57681 35.6211 8.49694 35.6211H34.2801C35.2002 35.6211 35.9463 34.8818 35.9463 33.97V8.42007C35.9463 7.50827 35.2005 6.76899 34.2801 6.76899ZM10.163 10.0711H32.614V26.1499C32.5904 26.1362 32.567 26.1227 32.5425 26.1086C31.834 25.6982 30.8636 25.1359 29.1231 25.1359C27.3827 25.1359 26.4122 25.6982 25.7038 26.1086C25.1427 26.4337 24.8042 26.6298 23.9663 26.6298C23.1286 26.6298 22.79 26.4337 22.229 26.1086C21.5206 25.6982 20.5502 25.1359 18.8097 25.1359C17.0693 25.1359 16.099 25.6982 15.3905 26.1087C14.8296 26.4338 14.4911 26.6299 13.6533 26.6299C12.8156 26.6299 12.4769 26.4338 11.916 26.1087C11.4744 25.8528 10.9309 25.5381 10.1629 25.3372L10.163 10.0711ZM10.1631 32.3189V28.9181C10.1866 28.9317 10.2099 28.9452 10.2343 28.9593C10.9427 29.3697 11.913 29.932 13.6536 29.932C15.394 29.932 16.3643 29.3697 17.0728 28.9592C17.6337 28.6341 17.9722 28.438 18.8099 28.438C19.6477 28.438 19.9863 28.6341 20.5473 28.9592C21.2557 29.3696 22.226 29.9319 23.9666 29.9319C25.7071 29.9319 26.6775 29.3696 27.3859 28.9592C27.9468 28.6341 28.2855 28.438 29.1233 28.438C29.9612 28.438 30.2998 28.6341 30.8609 28.9592C31.3025 29.215 31.846 29.5298 32.6142 29.7307V32.3189H10.1631Z" fill="#FFC0EF"/>
<path d="M45.3775 6.76899H42.7773V4.19225C42.7772 1.88064 40.8794 0 38.5467 0H4.23053C1.89781 0 0 1.88064 0 4.19225V44.0388C0 46.3504 1.89781 48.231 4.23053 48.231H6.83079V50.8077C6.83079 53.1194 8.72859 55 11.0613 55H45.3773C47.71 55 49.6078 53.1194 49.6078 50.8077V10.9613C49.6081 8.64973 47.7102 6.76899 45.3775 6.76899ZM4.23053 44.929C3.73524 44.929 3.3323 44.5297 3.3323 44.0389V4.19225C3.3323 3.70144 3.73524 3.30215 4.23053 3.30215H38.5465C39.0418 3.30215 39.4447 3.70144 39.4447 4.19225V44.0388C39.4447 44.5296 39.0418 44.9289 38.5465 44.9289H4.23053V44.929ZM45.3775 51.698H11.0614C10.5661 51.698 10.1632 51.2987 10.1632 50.8079V48.2311H38.5466C40.8793 48.2311 42.7772 46.3505 42.7772 44.0389V10.0711H45.3774C45.8727 10.0711 46.2756 10.4704 46.2756 10.9612V50.8077H46.2758C46.2758 51.2987 45.8728 51.698 45.3775 51.698Z" fill="#FFC0EF"/>
<path d="M16.5742 11.433C13.7969 11.433 11.5374 13.6721 11.5374 16.4243C11.5374 19.1766 13.797 21.4156 16.5742 21.4156C19.3515 21.4156 21.6111 19.1765 21.6111 16.4243C21.6112 13.6721 19.3516 11.433 16.5742 11.433ZM16.5742 18.1135C15.6343 18.1135 14.8697 17.3558 14.8697 16.4244C14.8697 15.4931 15.6344 14.7353 16.5742 14.7353C17.5142 14.7353 18.2788 15.4931 18.2788 16.4244C18.2788 17.3558 17.5142 18.1135 16.5742 18.1135Z" fill="#FFC0EF"/>
</svg>
