<svg width="36" height="36" viewBox="0 0 36 36" fill="none" xmlns="http://www.w3.org/2000/svg">
<rect width="36" height="36" rx="4" fill="#343434" fill-opacity="0.5"/>
<path d="M28.2991 9.65402C27.1651 8.55119 25.5983 8 23.5981 8C23.0446 8 22.4796 8.09559 21.9039 8.28666C21.3279 8.47788 20.792 8.73586 20.2969 9.06042C19.8012 9.38488 19.3752 9.68958 19.0178 9.97405C18.6608 10.2586 18.3214 10.561 18 10.881C17.6785 10.561 17.3392 10.2586 16.9822 9.97405C16.6249 9.68958 16.1987 9.38506 15.7031 9.06042C15.2075 8.73572 14.6718 8.47793 14.0959 8.28666C13.5201 8.09563 12.9553 8 12.4017 8C10.4016 8 8.83478 8.55133 7.70089 9.65402C6.56699 10.7566 6 12.286 6 14.2423C6 14.8381 6.10508 15.4519 6.31481 16.0829C6.52454 16.7143 6.76354 17.2523 7.03135 17.6969C7.29911 18.1413 7.60275 18.5748 7.94205 18.9972C8.28134 19.4196 8.52931 19.7107 8.68537 19.8708C8.84158 20.0308 8.96439 20.1465 9.05366 20.2177L17.4107 28.2475C17.5715 28.4075 17.7679 28.4878 18 28.4878C18.2321 28.4878 18.4286 28.4075 18.5893 28.2475L26.9331 20.2441C28.9778 18.2081 30 16.2074 30 14.2421C30 12.2857 29.4331 10.7564 28.2991 9.65402ZM25.7678 18.9905L18 26.4466L10.2189 18.9771C8.54924 17.3146 7.71454 15.736 7.71454 14.2421C7.71454 13.5219 7.81051 12.8861 8.00237 12.3349C8.19437 11.7836 8.4399 11.3455 8.73899 11.021C9.03813 10.6963 9.40191 10.432 9.83048 10.2273C10.2593 10.0228 10.6789 9.88495 11.0895 9.81385C11.5002 9.74284 11.9376 9.70728 12.402 9.70728C12.8662 9.70728 13.3663 9.82053 13.902 10.0473C14.4376 10.2741 14.9309 10.5586 15.3817 10.9009C15.8327 11.2435 16.2188 11.5635 16.5404 11.8613C16.8618 12.1594 17.1295 12.4327 17.3439 12.6817C17.5045 12.8774 17.7234 12.9752 18.0001 12.9752C18.2768 12.9752 18.4955 12.8774 18.6563 12.6817C18.8706 12.4327 19.1386 12.1593 19.4599 11.8613C19.7814 11.5635 20.1676 11.2436 20.6183 10.9009C21.0693 10.5586 21.5626 10.2741 22.0984 10.0473C22.634 9.82057 23.1342 9.70728 23.5985 9.70728C24.0627 9.70728 24.5 9.74284 24.9109 9.81385C25.3216 9.88491 25.7412 10.0228 26.1699 10.2273C26.5985 10.4319 26.9623 10.6965 27.2613 11.021C27.5604 11.3455 27.806 11.7836 27.998 12.3349C28.1897 12.8861 28.2857 13.5219 28.2857 14.2421C28.2856 15.736 27.4465 17.319 25.7678 18.9905Z" fill="white"/>
</svg>
