
<svg width="18" height="24" viewBox="0 0 18 24" fill="none" xmlns="http://www.w3.org/2000/svg">
<path d="M15.4381 2.94708H13.1125V2.57812C13.1125 1.15649 11.961 0 10.5456 0H6.99271C5.57725 0 4.42577 1.15649 4.42577 2.57812V2.94708H2.10022C0.942181 2.94708 0 3.89337 0 5.05646V6.59711C0 6.98547 0.313392 7.30023 0.700073 7.30023H1.2625L2.20195 23.3383C2.22364 23.7098 2.53011 24 2.90074 24H14.6377C15.0084 24 15.3148 23.7098 15.3365 23.3383L16.2758 7.30023H16.8384C17.2249 7.30023 17.5385 6.98547 17.5385 6.59711V5.05646C17.5383 3.89337 16.5961 2.94708 15.4381 2.94708ZM5.82592 2.57812C5.82592 1.93195 6.34933 1.40625 6.99271 1.40625H10.5456C11.1889 1.40625 11.7124 1.93195 11.7124 2.57812V2.94708H5.82592V2.57812ZM1.40015 5.05646C1.40015 4.66864 1.71427 4.35333 2.10022 4.35333H15.4381C15.8242 4.35333 16.1381 4.66864 16.1381 5.05646V5.89398H1.40015V5.05646ZM13.9776 22.5938H3.56089L2.66502 7.30023H14.8733L13.9776 22.5938Z" fill="#D2D2D2"/>
<path d="M8.76912 21.1407C9.15581 21.1407 9.4692 20.8259 9.4692 20.4375V9.42188C9.4692 9.03351 9.15581 8.71876 8.76912 8.71876C8.38263 8.71876 8.06905 9.03351 8.06905 9.42188V20.4375C8.06905 20.8259 8.38263 21.1407 8.76912 21.1407Z" fill="#D2D2D2"/>
<path d="M11.5397 21.1399C11.5497 21.1405 11.5599 21.1407 11.5699 21.1407C11.9428 21.1407 12.2529 20.8451 12.2689 20.4674L12.7356 9.45173C12.752 9.06373 12.4521 8.73578 12.0658 8.71931C11.6801 8.70319 11.3532 9.00403 11.3368 9.39204L10.87 20.4077C10.8535 20.7957 11.1534 21.1234 11.5397 21.1399Z" fill="#D2D2D2"/>
<path d="M5.96829 21.1407C5.97832 21.1407 5.98853 21.1405 5.99874 21.1399C6.38487 21.1234 6.68477 20.7957 6.66836 20.4077L6.20165 9.39203C6.18524 9.00403 5.8589 8.70301 5.4724 8.7193C5.08609 8.73578 4.78637 9.06373 4.80278 9.45173L5.26949 20.4674C5.28535 20.8453 5.59546 21.1407 5.96829 21.1407Z" fill="#D2D2D2"/>
</svg>
