<svg width="16" height="19" viewBox="0 0 16 19" fill="none" xmlns="http://www.w3.org/2000/svg">
    <path d="M15.9942 17.5816L14.9566 4.74081C14.9361 4.4875 14.7245 4.29233 14.4704 4.29233H11.6847V3.67482C11.6847 1.64851 10.0579 0 8.03156 0H7.96717C5.94087 0 4.2707 1.64851 4.2707 3.67482V4.29233H1.52836C1.2742 4.29233 1.06264 4.4875 1.04216 4.74081L0.00159135 17.6178C-0.00939961 17.7536 0.0369054 17.8877 0.129255 17.9878C0.221606 18.0879 0.351676 18.1448 0.487795 18.1448H15.5109C15.5113 18.1448 15.5118 18.1448 15.5122 18.1448C15.7817 18.1448 16 17.9265 16 17.6571C16 17.6314 15.998 17.6061 15.9942 17.5816ZM5.24623 3.67482C5.24623 2.18642 6.47878 0.975529 7.96717 0.975529H8.03156C9.51995 0.975529 10.7092 2.18642 10.7092 3.67482V4.29233H5.24623V3.67482Z" fill="white"/>
</svg>
