<svg width="24" height="25" viewBox="0 0 24 25" fill="none" xmlns="http://www.w3.org/2000/svg">
    <path d="M1.56551 1.66657C-0.315069 3.61995 0.0698223 5.69497 0.0698223 11.9988C0.0698223 17.2337 -0.843546 22.4816 3.93668 23.717C5.42938 24.1009 18.6553 24.1009 20.146 23.715C22.1362 23.2015 23.7556 21.5872 23.9769 18.7723C24.0078 18.3794 24.0079 5.62517 23.9759 5.22432C23.7406 2.22596 21.8949 0.497942 19.4629 0.14795C18.9056 0.0671829 18.7939 0.0432519 15.9341 0.0382662C5.79034 0.0432519 3.56675 -0.408447 1.56551 1.66657Z"
          fill="url(#paint0_linear)"/>
    <path d="M12.0329 3.1682C8.41232 3.1682 4.97423 2.84612 3.66101 6.21641C3.11858 7.6084 3.19735 9.41619 3.19735 12.0047C3.19735 14.2762 3.12456 16.411 3.66101 17.7921C4.97124 21.1643 8.43725 20.8413 12.0309 20.8413C15.4979 20.8413 19.0726 21.2022 20.4018 17.7921C20.9452 16.3861 20.8654 14.6052 20.8654 12.0047C20.8654 8.55268 21.0559 6.3241 19.3817 4.65092C17.6866 2.95581 15.3942 3.1682 12.0289 3.1682H12.0329ZM11.2412 4.76061C18.7934 4.74864 19.7546 3.90906 19.2242 15.5725C19.0357 19.6976 15.8948 19.2449 12.0339 19.2449C4.99417 19.2449 4.79176 19.0435 4.79176 12.0007C4.79176 4.87627 5.35015 4.7646 11.2412 4.75861V4.76061ZM16.7493 6.22738C16.164 6.22738 15.6894 6.70201 15.6894 7.28733C15.6894 7.87264 16.164 8.34727 16.7493 8.34727C17.3346 8.34727 17.8092 7.87264 17.8092 7.28733C17.8092 6.70201 17.3346 6.22738 16.7493 6.22738ZM12.0329 7.46681C9.52711 7.46681 7.49596 9.49896 7.49596 12.0047C7.49596 14.5105 9.52711 16.5417 12.0329 16.5417C14.5387 16.5417 16.5688 14.5105 16.5688 12.0047C16.5688 9.49896 14.5387 7.46681 12.0329 7.46681ZM12.0329 9.05922C15.9267 9.05922 15.9317 14.9502 12.0329 14.9502C8.14011 14.9502 8.13412 9.05922 12.0329 9.05922Z"
          fill="white"/>
    <defs>
        <linearGradient id="paint0_linear" x1="1.6114" y1="22.4408" x2="23.8528" y2="3.19116"
                        gradientUnits="userSpaceOnUse">
            <stop stop-color="#FFDD55"/>
            <stop offset="0.5" stop-color="#FF543E"/>
            <stop offset="1" stop-color="#C837AB"/>
        </linearGradient>
    </defs>
</svg>
