<svg width="19" height="16" viewBox="0 0 19 16" fill="none" xmlns="http://www.w3.org/2000/svg">
    <path d="M17.4145 1.29171C16.5289 0.430449 15.3053 0 13.7433 0C13.311 0 12.8698 0.0746483 12.4202 0.223872C11.9703 0.373205 11.5519 0.574674 11.1652 0.828135C10.7781 1.08152 10.4454 1.31948 10.1663 1.54164C9.88747 1.76387 9.62243 2.00003 9.37145 2.24995C9.12036 2.00003 8.85538 1.76387 8.57656 1.54164C8.29756 1.31948 7.9647 1.08167 7.57763 0.828135C7.19063 0.574565 6.77223 0.373241 6.32251 0.223872C5.87283 0.0746847 5.43172 0 4.99944 0C3.43748 0 2.21383 0.430559 1.32831 1.29171C0.442795 2.15279 0 3.34717 0 4.87494C0 5.34023 0.0820601 5.81957 0.245851 6.31237C0.409641 6.80543 0.596291 7.22563 0.805435 7.57278C1.01454 7.9199 1.25167 8.2584 1.51665 8.5883C1.78162 8.91816 1.97527 9.1455 2.09715 9.2705C2.21914 9.39549 2.31505 9.48587 2.38476 9.54147L8.91121 15.8123C9.03676 15.9373 9.19015 16 9.37141 16C9.55268 16 9.70617 15.9373 9.83164 15.8123L16.3477 9.56209C17.9445 7.97207 18.7429 6.40957 18.7429 4.87479C18.7429 3.34691 18.3001 2.15265 17.4145 1.29171ZM15.4377 8.58309L9.37145 14.4059L3.29479 8.57258C1.99084 7.27426 1.33897 6.04147 1.33897 4.87479C1.33897 4.31238 1.41392 3.81578 1.56376 3.38533C1.7137 2.95481 1.90544 2.61269 2.13902 2.35923C2.37264 2.10569 2.65673 1.89926 2.99142 1.73942C3.32629 1.57973 3.65398 1.47206 3.97468 1.41653C4.29537 1.36107 4.63698 1.33331 4.99962 1.33331C5.36215 1.33331 5.75271 1.42175 6.17107 1.59888C6.58935 1.77594 6.9746 1.99817 7.32668 2.2655C7.67885 2.533 7.98042 2.78296 8.23154 3.01552C8.48252 3.24829 8.69163 3.46169 8.85901 3.65616C8.98445 3.80899 9.15542 3.88539 9.37148 3.88539C9.58762 3.88539 9.75841 3.80899 9.88399 3.65616C10.0513 3.46169 10.2606 3.24818 10.5116 3.01552C10.7626 2.78296 11.0642 2.53311 11.4162 2.2655C11.7684 1.99817 12.1536 1.77594 12.5721 1.59888C12.9903 1.42178 13.381 1.33331 13.7436 1.33331C14.1061 1.33331 14.4476 1.36107 14.7685 1.41653C15.0893 1.47202 15.417 1.57973 15.7517 1.73942C16.0865 1.89922 16.3706 2.1058 16.6041 2.35923C16.8377 2.61269 17.0295 2.95481 17.1794 3.38533C17.3291 3.81578 17.4041 4.31238 17.4041 4.87479C17.404 6.04147 16.7487 7.27769 15.4377 8.58309Z" fill="white"/>
</svg>
