<svg width="16" height="16" viewBox="0 0 16 16" fill="none" xmlns="http://www.w3.org/2000/svg">
<path fill-rule="evenodd" clip-rule="evenodd" d="M0 15.0771V15.4617C0 15.7159 0.284108 16 0.538416 16H15.4616C15.7017 16 16 15.7018 16 15.4617C16 14.3413 15.8992 13.7508 15.5725 12.7742C15.1017 11.367 14.1924 10.0788 13.0335 9.15978C12.7494 8.93445 12.0856 8.42093 11.7692 8.34722C11.6856 8.40315 11.6808 8.42136 11.6057 8.49136C10.9723 9.08104 10.0454 9.49954 9.20037 9.70126C8.07727 9.96938 6.88157 9.83776 5.83439 9.39725C4.80688 8.965 4.62663 8.61233 4.23069 8.34726C3.73817 8.46199 2.49183 9.51498 2.10594 9.95309C0.897141 11.3254 0 13.1695 0 15.0771Z" fill="white"/>
<path fill-rule="evenodd" clip-rule="evenodd" d="M3.69232 4.11706C3.69232 5.42967 4.02542 6.43348 4.9327 7.33777C5.63757 8.04035 6.69939 8.61646 7.73079 8.61646C8.53215 8.61646 9.12275 8.56658 9.84396 8.19125C10.5545 7.8214 11.2932 7.19696 11.6909 6.49997C12.4162 5.22893 12.5512 3.74966 11.8848 2.4248C11.4215 1.50375 10.7752 0.871849 9.83382 0.399105C8.66454 -0.188131 6.93985 -0.124457 5.83824 0.571123C4.61673 1.34234 3.69232 2.61422 3.69232 4.11706Z" fill="white"/>
</svg>
