<svg width="16" height="14" viewBox="0 0 16 14" fill="none" xmlns="http://www.w3.org/2000/svg">
<path d="M0.666667 7.41038L13.9663 7.41038L8.87367 12.3121C8.607 12.5687 8.59667 12.9952 8.85067 13.2646C9.10433 13.5338 9.52633 13.5445 9.79333 13.2879L15.6093 7.68962C15.861 7.43497 16 7.09679 16 6.73671C16 6.37697 15.861 6.03844 15.5977 5.77268L9.793 0.185881C9.664 0.0615887 9.49867 -5.20668e-05 9.33333 -5.20812e-05C9.15733 -5.20966e-05 8.98133 0.0700096 8.85033 0.209123C8.59633 0.478594 8.60667 0.904695 8.87333 1.16137L13.9873 6.06303L0.666667 6.06303C0.298667 6.06303 6.2147e-07 6.36484 5.88961e-07 6.73671C5.56451e-07 7.10858 0.298667 7.41038 0.666667 7.41038Z" fill="#E253B6"/>
</svg>
