<svg width="32" height="18" viewBox="0 0 32 18" fill="none" xmlns="http://www.w3.org/2000/svg">
<path d="M31.884 2.92427L31.3353 3.28603C31.3735 3.32845 31.3371 3.39174 31.204 3.47408C31.0723 3.55545 30.933 3.63913 30.8966 3.73744C31.0737 3.703 31.1938 3.74985 31.4431 3.60961C31.5056 3.57257 31.5306 3.59143 31.5505 3.60816C31.6565 3.69762 31.4574 4.026 31.1681 4.17672C30.7566 4.40382 30.373 4.65756 29.9496 4.8583C29.9427 4.88697 29.8159 4.96979 29.9409 4.93622C30.0009 4.91996 30.0827 4.86908 30.1536 4.83214C30.3815 4.71172 30.6098 4.59264 30.8348 4.46798C31.0587 4.34072 31.284 4.21683 31.5149 4.10343C31.6116 4.05245 31.7045 3.99445 31.7989 3.94087C31.8519 3.91115 31.9157 3.88258 31.9169 3.91702C31.918 3.94597 31.8689 3.98647 31.8136 4.02331C31.4892 4.26243 31.165 4.49674 30.7881 4.69382C30.7178 4.76346 30.6818 4.83589 30.5434 4.9014C30.292 5.01749 30.0902 5.1864 29.8426 5.30201C29.996 5.27527 30.1557 5.19631 30.3142 5.1234L30.2557 5.16495C30.278 5.15187 30.2989 5.13859 30.3142 5.1234C30.4438 5.05491 30.5794 4.99123 30.7017 4.91727C31.0754 4.69363 31.4331 4.50443 31.8213 4.38054C31.6871 4.48462 31.5534 4.58109 31.4091 4.65131C31.1075 4.79953 30.9311 4.95757 30.81 5.12378C30.7227 5.19053 30.6167 5.23776 30.5166 5.2922C30.1192 5.51661 29.6983 5.70071 29.3166 5.93771C29.3867 5.99523 29.6263 5.89443 29.798 5.88933C29.3537 6.15144 28.9545 6.36315 28.5181 6.53946C28.2893 6.68364 28.0215 6.75646 27.7698 6.8587C27.6731 6.91065 27.5724 6.95104 27.4706 6.98644C26.9672 7.18372 26.4651 7.38696 25.9521 7.56048C25.0243 7.89069 24.0888 8.19801 23.121 8.41462C22.9107 8.46926 22.7011 8.52928 22.489 8.57728C21.0303 8.88084 19.5641 9.14122 18.0793 9.28098C18.3291 9.27935 18.5807 9.27771 18.8299 9.27607C18.9603 9.26886 19.0902 9.2653 19.2193 9.26713C19.3994 9.24616 19.5793 9.22365 19.7582 9.19566C20.821 9.04061 21.8732 8.82448 22.928 8.60863C22.7829 8.66981 22.6169 8.70924 22.4537 8.74676C21.4723 8.97097 20.4795 9.14718 19.4793 9.28098C19.5313 9.2855 19.583 9.29021 19.6343 9.29743C19.3554 9.34485 19.0779 9.40727 18.798 9.4444C18.5948 9.45844 18.3906 9.46085 18.1861 9.44094C17.8757 9.4747 17.5648 9.50154 17.2495 9.5075C16.9872 9.56031 16.6819 9.53203 16.4204 9.58666C16.8651 9.60061 17.3114 9.61119 17.7581 9.58666C18.2055 9.5731 18.6523 9.52626 19.0992 9.45883C19.1313 9.45412 19.1666 9.45479 19.2003 9.45267L19.3652 9.44007C19.5733 9.3863 19.7894 9.35581 20.0105 9.33821L20.4047 9.29252C20.5759 9.17642 20.8293 9.10765 21.122 9.06042C21.5015 9.00396 21.8757 8.91778 22.2339 8.92317C22.6434 8.84977 23.0462 8.74464 23.451 8.65211C23.8532 8.54881 24.2519 8.43377 24.6469 8.31017C24.8044 8.25678 24.9863 8.18839 25.0122 8.28198C25.1682 8.27881 25.3423 8.23475 25.5167 8.18916L25.5926 8.16367L25.3013 8.20484C25.1309 8.21369 25.133 8.17348 25.3083 8.10654C25.5006 8.03786 25.7002 7.9663 25.8967 7.89608C25.7462 7.86453 25.8755 7.7996 26.0356 7.74189C26.5262 7.57222 27.0085 7.37686 27.4921 7.18853C27.3211 7.20459 27.1524 7.27972 26.9781 7.34656C26.56 7.51268 26.1308 7.64994 25.7045 7.7948L25.6909 7.75998C26.6394 7.42072 27.5662 7.03434 28.5255 6.6847C28.5105 6.84957 28.5103 6.85111 28.8414 6.7202C29.0286 6.64305 29.2174 6.56572 29.4056 6.48867C29.5507 6.38999 29.7145 6.31409 29.8835 6.24667C30.0378 6.17087 30.1902 6.07834 30.3661 6.03708C30.1531 6.20117 30.1538 6.20242 29.8855 6.32073C29.8631 6.33968 29.7805 6.36488 29.8299 6.37575C29.8353 6.37671 29.8598 6.36623 29.8747 6.35921C30.1833 6.21396 30.4928 6.07064 30.7946 5.91049C30.4235 6.18799 29.9985 6.38999 29.5722 6.59996C29.1406 6.78945 28.6985 6.97307 28.2991 7.1994L28.231 7.23095C28.2609 7.33319 27.979 7.39802 27.8655 7.48344C27.2609 7.75911 26.6444 8.0191 26.0094 8.08422L25.9277 8.11616C25.9277 8.12856 25.9411 8.14136 25.9257 8.15396C25.7643 8.29631 24.9664 8.55708 24.7525 8.55381C24.6421 8.55044 24.4898 8.53649 24.7608 8.43049L24.9211 8.37884L24.7158 8.39798L24.8276 8.35431C24.7858 8.36518 24.7454 8.3774 24.7158 8.39798C24.2451 8.48927 23.7929 8.6447 23.3284 8.75599C23.1692 8.81928 22.9955 8.85429 22.8212 8.88671C22.5258 8.96462 22.2266 9.02291 21.9288 9.08889C22.1686 9.08851 22.4155 9.03532 22.6616 8.97299C23.14 8.84833 23.4559 8.79264 23.7331 8.7634C23.027 8.94356 22.3831 9.12064 21.7159 9.22692C21.5487 9.26963 21.3797 9.30426 21.211 9.33927L21.2093 9.37005C21.3054 9.36505 21.4015 9.35995 21.5263 9.35331C21.1336 9.46893 20.7264 9.52558 20.3409 9.60109C20.3579 9.60648 20.3744 9.60975 20.3918 9.61629L20.5545 9.57743C20.7297 9.57137 20.9506 9.53616 20.884 9.69131L21.2866 9.64418C21.4064 9.55925 21.4656 9.51712 21.558 9.50894C21.6302 9.50317 21.7246 9.51943 21.8795 9.54126C22.2575 9.46239 22.6347 9.38159 23.0081 9.28348C23.3843 9.19066 23.7617 9.10332 24.1411 9.01752C24.5844 8.83862 25.0684 8.68818 25.5352 8.51985C25.6701 8.45522 25.807 8.41636 25.9469 8.40145C26.1196 8.33825 26.2962 8.27842 26.4633 8.20994C26.6464 8.13722 26.8156 8.04594 27.0154 8.01189L27.7851 7.6962C28.5241 7.37985 29.2557 7.04752 29.9712 6.68057C30.1224 6.60314 30.2805 6.53138 30.4363 6.46482C30.5115 6.43288 30.5988 6.41596 30.581 6.46501C30.5684 6.49925 30.4856 6.54417 30.4291 6.56024C30.1463 6.64065 29.9043 6.76733 29.6799 6.93469C29.6451 6.95932 29.5877 6.99202 29.549 7.0027C29.14 7.11408 28.8727 7.3608 28.5214 7.51826C28.4268 7.56173 28.5728 7.52134 28.6036 7.52278C29.1517 7.30453 29.6732 7.04069 30.1999 6.77887C30.3413 6.68307 30.499 6.6041 30.6589 6.52676C30.816 6.44481 30.9748 6.36334 31.1201 6.26956H31.1185C31.2727 6.22897 31.2868 6.26879 31.1944 6.36219C31.1019 6.45607 30.9398 6.55831 30.7645 6.64305C30.5876 6.72424 30.3961 6.78406 30.2492 6.80407C30.2517 6.80984 30.2563 6.81455 30.2546 6.82263C30.2329 6.87265 30.1771 6.92565 30.084 6.9799C29.6884 7.21854 29.2712 7.41582 28.8523 7.61454C28.4254 7.79306 27.9935 7.96899 27.5403 8.0898L27.5385 8.09038C27.5524 8.0973 27.563 8.1075 27.5657 8.12712C27.4874 8.21244 27.3282 8.26024 27.1903 8.31113C26.7829 8.46868 26.3709 8.60594 25.9583 8.75041C25.9112 8.74262 25.8637 8.74051 25.8168 8.74176L25.2598 8.91566L25.2401 8.92644C25.1319 8.98905 25.0041 9.05234 24.8773 9.11236C24.4399 9.24202 24.0037 9.38361 23.5503 9.46585C23.3182 9.51019 23.0909 9.53857 22.862 9.57243C22.5628 9.64495 22.2598 9.69834 21.9592 9.76374C21.665 9.8254 21.594 9.84117 21.4745 9.80962L21.2551 9.85541C21.2479 9.85772 21.2396 9.85935 21.2323 9.86156C21.2725 9.901 21.2535 9.94938 21.0872 10.0209L21.0769 10.0265C21.2046 10.0107 21.3341 9.98757 21.4629 9.9665C21.6578 9.91851 21.8543 9.87311 22.0529 9.82944C22.3465 9.76509 22.6461 9.71959 22.939 9.64745C23.2752 9.56108 23.6128 9.48316 23.9472 9.38958C24.9863 9.11737 26.0074 8.78235 27.0185 8.42068C27.3449 8.29593 27.6398 8.14424 27.972 8.02449C28.3303 7.89156 28.3299 7.888 28.3285 8.04142C28.6492 7.91541 28.8297 7.74112 29.1198 7.59453C29.0445 7.61204 28.932 7.69351 28.8675 7.64167C29.3768 7.43554 29.8356 7.14082 30.4142 6.96768C30.2144 7.12293 30.0047 7.17112 29.8672 7.27933C30.1445 7.17737 30.4365 6.99529 30.7642 6.93556C30.332 7.18459 29.9998 7.43852 29.5329 7.56962C29.3618 7.61983 29.1403 7.73699 28.974 7.83587C28.7664 7.95379 28.5601 8.04507 28.3275 8.13953C28.0471 8.25447 27.7695 8.36874 27.4911 8.4833C27.2119 8.59661 26.9328 8.71521 26.6398 8.8088C26.034 9.01791 25.4029 9.19297 24.7957 9.40419C24.7796 9.40939 24.751 9.40093 24.7009 9.39602C25.0492 9.24452 25.4162 9.13689 25.7743 9.0231C26.1784 8.88546 26.5792 8.73868 26.979 8.59045C27.3745 8.42934 27.7743 8.28237 28.1643 8.10875C27.8747 8.21023 27.5791 8.26755 27.2864 8.38231C26.4533 8.70655 25.6049 8.98742 24.75 9.24799C24.6692 9.33292 24.5628 9.31416 24.4634 9.32157C24.0594 9.43122 23.6544 9.53761 23.2456 9.62764L23.1831 9.64351C23.1241 9.66063 23.0607 9.68246 23.0131 9.68641C22.7132 9.76644 22.4082 9.82549 22.1037 9.88638C22.0509 9.89725 21.9979 9.90571 21.9449 9.91581C22.0453 9.91543 22.143 9.92389 22.2357 9.94804C22.6297 9.89456 23.0235 9.75999 23.4216 9.73652C23.0895 9.81424 22.7922 9.93707 22.4664 10.0191C22.7404 10.0696 23.0533 9.94967 23.3462 9.92284C23.4039 9.94053 23.4577 9.92716 23.512 9.90754C23.4572 9.91831 23.4029 9.92774 23.3462 9.92284C23.4905 9.89311 23.6289 9.81751 23.7756 9.81665L23.7747 9.81568C24.166 9.64495 24.5688 9.6083 24.9621 9.53549C25.5814 9.33908 26.2103 9.13939 26.8232 8.94481L26.5202 9.12804L26.5223 9.12785L26.7098 9.06927C26.6408 9.119 26.5742 9.16825 26.5078 9.21692C27.0994 9.00617 27.6858 8.77965 28.2674 8.54082C28.4598 8.45916 28.6786 8.32584 28.8532 8.35759L28.6417 8.47282C28.1529 8.7886 27.5472 8.87844 27.0172 9.10929C26.7657 9.19672 26.5202 9.29627 26.2668 9.37996C26.2514 9.38958 26.236 9.4015 26.2206 9.41083C26.0606 9.50894 25.9118 9.60648 25.7824 9.71401C25.5846 9.87869 25.3477 9.99353 25.0609 10.0574C24.9423 10.118 24.8154 10.1588 24.6925 10.2107C24.4916 10.3083 24.2413 10.3993 24.3208 10.5395C24.6819 10.4441 25.0526 10.3719 25.4026 10.2435C25.7484 10.105 26.0952 9.97439 26.4587 9.85012C26.7091 9.74883 26.9655 9.64351 27.2352 9.54049C27.1362 9.56108 27.0996 9.54867 27.1907 9.47951L27.1835 9.48192C27.405 9.35456 27.6842 9.32484 27.9078 9.20143C27.9385 9.19297 27.9689 9.18287 27.9993 9.17113C28.1277 9.06542 28.296 8.99713 28.4929 8.95115L29.0003 8.72935L29.1037 8.72983L28.9108 8.84112C28.7005 8.94885 28.4862 9.05321 28.267 9.15113C28.0455 9.24279 27.8193 9.32898 27.5869 9.40775C27.576 9.41151 27.5654 9.41699 27.5546 9.42237C27.5633 9.4193 27.5716 9.41622 27.5803 9.41285C27.3472 9.59715 27.1681 9.6438 27.011 9.71834C26.8725 9.78413 26.7323 9.84637 26.5918 9.90735C26.449 9.96381 26.3008 10.0086 26.1561 10.0606C25.8647 10.1615 25.5772 10.2684 25.2988 10.4024L25.2294 10.4365C25.2441 10.4446 25.2401 10.4633 25.2232 10.4853L25.0025 10.5452L24.5661 10.7487L24.5871 10.7928L25.0765 10.6642C25.2401 10.6228 25.3957 10.5589 25.5559 10.5076C25.8411 10.4015 26.125 10.2908 26.4123 10.1918C26.6802 10.111 26.927 9.9438 27.1903 9.92899C26.6406 10.2635 26.0103 10.4344 25.4056 10.6507C25.2506 10.719 25.0885 10.7698 24.9253 10.8147L24.4368 10.9506L23.9472 11.0794C23.7845 11.1241 23.6207 11.1644 23.4534 11.1919C23.4103 11.2096 23.3619 11.2216 23.3021 11.2206L22.7589 11.3427L22.4874 11.4865L23.2737 11.3403C23.3576 11.3115 23.4389 11.2982 23.5178 11.3069C23.5573 11.3099 23.5963 11.3065 23.6356 11.3067C23.8182 11.2634 24.0012 11.2226 24.183 11.1764C24.1182 11.221 24.0366 11.2552 23.9459 11.2841C24.1504 11.2535 24.3591 11.1989 24.5848 11.1231C24.5999 11.1177 24.6161 11.1125 24.6311 11.1072C24.5871 11.1119 24.551 11.1076 24.5377 11.081C24.686 11.0062 24.8717 10.9815 25.0388 10.9326C25.2665 10.8763 25.4913 10.8082 25.7163 10.7422C26.2273 10.5975 26.7082 10.3894 27.2172 10.2322L27.3916 10.1611C27.4691 10.1293 27.5646 10.0691 27.6257 10.0972C28.0643 9.94467 28.4719 9.77605 28.797 9.53616C28.9526 9.47595 29.0477 9.46181 29.0311 9.53347C29.0063 9.60398 28.9779 9.67525 28.834 9.76807C28.596 9.80039 28.3552 9.85175 28.0635 9.97853C27.931 10.0365 27.7849 10.0908 27.6439 10.1236C27.4478 10.2751 27.2042 10.4024 26.971 10.5355C26.8616 10.6028 26.7185 10.6646 26.6357 10.6226C26.5051 10.557 26.3316 10.6455 26.1621 10.7027L25.5321 10.9142C25.3075 11.0293 25.0439 11.0627 24.8193 11.1711C24.7595 11.2077 24.6953 11.2389 24.6319 11.2713C24.6641 11.263 24.696 11.2558 24.7276 11.2473C24.903 11.2024 25.0912 11.1449 25.2522 11.1737C24.9398 11.2585 24.6259 11.3378 24.3118 11.4147C24.2799 11.4271 24.2498 11.4417 24.2173 11.4533C24.0026 11.528 23.7787 11.5943 23.5394 11.6185C23.5023 11.612 23.4644 11.6138 23.4253 11.6198C23.4197 11.621 23.4137 11.6223 23.4081 11.6237C23.3729 11.6302 23.3373 11.6394 23.3012 11.6507C23.1762 11.7068 23.044 11.7406 22.9063 11.7513C22.8833 11.7548 22.8601 11.7568 22.8359 11.7563C22.8203 11.755 22.8047 11.7559 22.7891 11.755C22.5597 11.8014 22.3303 11.8466 22.1001 11.8888C21.6935 11.9676 21.2845 12.0353 20.8765 12.1079C20.4664 12.1685 20.0556 12.2277 19.6439 12.28C19.2656 12.3189 18.8868 12.3581 18.497 12.3981C18.2394 12.4148 17.9741 12.429 17.7037 12.4398C17.6969 12.4894 17.6958 12.5384 17.7851 12.5792C18.0877 12.5765 18.3923 12.5838 18.6935 12.5696C18.9348 12.5642 19.1746 12.5381 19.4141 12.5144C19.6536 12.4919 19.8932 12.4721 20.1324 12.4554C20.6132 12.4354 21.0868 12.3703 21.5663 12.3399C21.8435 12.3175 22.1409 12.3109 22.3956 12.2023C22.5887 12.1196 22.7837 12.0792 22.9882 12.0468L23.5731 11.9557L23.866 11.911L24.1546 11.847L25.4303 11.4928L25.8459 11.3465C26.2039 11.1902 26.5776 11.1018 27.05 10.9147C26.6736 11.2372 26.0889 11.2626 25.794 11.5983C26.1211 11.4632 26.3974 11.3057 26.6604 11.3577C26.4964 11.506 26.2763 11.5825 26.0631 11.6596C25.6129 11.8374 25.1433 11.9545 24.6791 12.0881C24.4952 12.1409 24.2931 12.1801 24.1403 12.2735C23.7712 12.4948 23.3284 12.5409 22.8929 12.6081C22.6752 12.6531 22.4564 12.6807 22.2356 12.6959C22.0142 12.7116 21.7954 12.7397 21.5804 12.8241C20.7038 12.9942 19.8099 13.0627 18.9232 13.0735L18.5529 13.0657C18.4072 13.1655 18.8214 13.1339 18.7392 13.2248L18.4153 13.2475C18.3774 13.3182 18.2823 13.367 18.1171 13.3906C17.9681 13.412 17.8213 13.4361 17.7101 13.4891L18.3378 13.5165C18.5932 13.511 18.8492 13.5114 19.1044 13.4984L19.8687 13.4376L20.6338 13.3846C20.8887 13.367 21.1415 13.3287 21.3959 13.3071C21.7377 13.2191 22.0733 13.1819 22.4082 13.1978C22.0583 13.284 21.7006 13.3493 21.3348 13.3757L20.9974 13.4501C20.7146 13.554 20.4202 13.5486 20.1279 13.5348C19.7791 13.541 19.4317 13.5646 19.0847 13.5961L18.0409 13.6449L18.0759 13.7094C18.4162 13.715 18.7573 13.7253 19.0987 13.7262L20.5634 13.616C21.1175 13.5474 21.6672 13.4526 22.2213 13.3841C22.4991 13.3553 22.7711 13.2885 23.0454 13.2368L23.8669 13.0665C24.1645 13.0111 24.4545 12.921 24.7487 12.8474L25.6301 12.6183C25.1845 12.8318 24.6878 12.9307 24.2219 13.091C24.0741 13.2021 23.9223 13.3029 23.7709 13.4102C23.919 13.3697 24.0811 13.3209 24.1695 13.3639C24.548 13.2508 24.9253 13.1341 25.2979 12.9973C25.6035 12.8796 25.9152 12.773 26.2093 12.6297C26.3575 12.5601 26.5055 12.4898 26.6479 12.4086C26.7879 12.3239 26.9247 12.2336 27.057 12.1351C27.1025 12.1011 27.1628 12.0592 27.2114 12.0589C27.4041 12.0591 27.5485 11.916 27.7254 11.8727C27.8971 11.7853 28.0718 11.7012 28.2374 11.6037C28.5736 11.3382 28.5914 11.3296 28.7786 11.3343C28.5985 11.4704 28.4288 11.5983 28.2593 11.7265C28.2837 11.762 28.3136 11.7993 28.3643 11.7896C28.5138 11.7614 28.6287 11.8379 28.7681 11.8437C28.8562 11.8473 28.9264 11.8812 28.9724 11.9434C29.0106 11.9935 29.0135 12.2973 28.9787 12.3756C28.97 12.3958 28.9566 12.4183 28.9746 12.4201C29.1209 12.4354 29.0429 12.5965 29.1294 12.6559C29.3867 12.8297 29.3029 13.0925 29.1343 13.3626C28.9835 13.5903 28.8014 13.7996 28.5927 13.9866C28.3815 14.1691 28.1386 14.3203 27.8772 14.4506C27.5588 14.6027 27.2449 14.7576 26.9307 14.9146C26.6856 15.0244 26.4405 15.1368 26.1905 15.2264C25.9395 15.3132 25.6788 15.3661 25.4145 15.3767C25.3241 15.3789 25.2278 15.4181 25.1336 15.441C24.7001 15.5459 24.2674 15.7277 23.8229 15.602C23.9687 15.5005 23.9955 15.3874 23.8955 15.274L23.7767 15.2864L23.582 15.2965C23.3436 15.3661 23.1019 15.4245 22.8596 15.4794C22.8281 15.5251 22.7709 15.5856 22.8984 15.562C23.0411 15.5352 23.1793 15.4509 23.33 15.5051C22.892 15.6267 22.4724 15.7939 22.0356 15.9091C22.0196 15.9262 21.9956 15.9418 21.9772 15.9589C22.1544 15.9448 22.3273 15.9483 22.5022 15.9569C22.8775 15.9069 23.2265 15.8403 23.4584 15.9472C23.5166 15.9744 23.6673 15.9625 23.7774 15.9676L24.112 15.802L24.1086 15.8017L24.1136 15.7997L24.112 15.802L24.7765 15.8172C24.9239 15.8234 25.1346 15.7288 25.2495 15.7782C25.1173 15.8231 24.9852 15.8698 24.8523 15.9085C24.7188 15.9436 24.5856 15.9782 24.4531 16.013C24.1886 16.0835 23.9275 16.1573 23.6741 16.2467C23.3615 16.3537 23.0511 16.3272 22.7647 16.3537C22.4628 16.39 22.1735 16.5631 21.7925 16.5678C21.1555 16.676 20.5225 16.7637 19.8745 16.7913C19.7421 16.8125 19.6093 16.8345 19.4766 16.8532C19.434 16.878 19.4238 16.9127 19.4739 16.9615C19.6343 16.9488 19.8182 16.9038 19.9559 16.986C19.3164 17.1606 18.718 17.2807 17.9828 17.2619L17.3489 17.2477L16.7146 17.2062C16.5473 17.1959 16.379 17.1853 16.2111 17.1753C15.6984 17.2029 15.1862 17.2408 14.6703 17.2631C14.5353 17.2707 14.3993 17.2767 14.2629 17.2796L13.8542 17.2709C13.581 17.2623 13.3065 17.252 13.0347 17.2223C12.5632 17.1829 12.0993 17.0834 11.63 17.0244C11.705 17.0486 11.7789 17.0735 11.8495 17.1005C11.9399 17.1373 12.0323 17.1873 11.9339 17.2174C11.8685 17.2372 11.7538 17.2105 11.6905 17.1794C11.407 17.0496 11.073 16.9383 10.7057 16.868C10.5633 16.8387 10.4584 16.7851 10.3716 16.727C10.3919 16.7306 10.4124 16.7336 10.4325 16.7369C10.4075 16.7295 10.383 16.7218 10.3581 16.714C10.362 16.7185 10.3683 16.7225 10.3716 16.727C10.2343 16.7377 10.1099 16.7894 9.9188 16.7049C9.80085 16.6526 9.68617 16.6267 9.57228 16.6076C9.45944 16.5839 9.34766 16.5645 9.23444 16.5335C8.67461 16.3755 8.11197 16.3137 7.55754 16.0981C7.1773 15.9948 6.80507 15.8458 6.43082 15.7088L6.9522 15.9701C7.23343 16.0976 7.51426 16.2273 7.79829 16.3504C8.04241 16.4485 8.28625 16.5472 8.53404 16.6352C8.78271 16.7214 9.0392 16.7838 9.30091 16.8311C9.65526 16.8989 10.0151 16.9959 10.3693 17.0922C10.7212 17.1775 11.0643 17.2915 11.4112 17.3997C11.7608 17.4926 12.1138 17.5859 12.4829 17.597C12.5268 17.5981 12.5711 17.6112 12.6154 17.6187C12.8355 17.6555 13.0553 17.696 13.2763 17.7285C13.4977 17.7534 13.7203 17.7714 13.9429 17.7722C14.2443 17.7781 14.5451 17.7757 14.8448 17.7922C15.1447 17.8086 15.4447 17.8252 15.7463 17.8419C16.7112 17.9004 17.6784 17.8287 18.6266 17.6805C18.8694 17.6459 19.0842 17.5797 19.1911 17.3891C19.2271 17.3262 19.2801 17.2955 19.3646 17.2816L19.9501 17.1815L20.5317 17.0623C20.6721 17.0336 20.8177 17.0219 20.9144 17.1219C21.0533 17.104 21.1675 17.1334 21.2617 17.2029L21.2518 17.2149L21.3768 17.1887L21.412 17.2782L21.0777 17.3395C20.4761 17.4571 19.8758 17.5746 19.2758 17.6917C18.8829 17.7753 18.4841 17.8223 18.0855 17.8793C17.6853 17.9148 17.2832 17.9577 16.8783 17.962C16.6266 17.9658 16.3746 17.9785 16.1232 17.9987C15.8716 18.0113 15.6291 17.928 15.3791 17.9639C15.2784 17.9606 15.1771 17.957 15.0768 17.9538C14.0655 17.9649 13.0519 17.8719 12.0565 17.6725C11.8928 17.6374 11.4027 17.6581 11.3237 17.6459C11.0173 17.5907 10.7113 17.5301 10.4066 17.4628C10.1046 17.386 9.80413 17.3004 9.506 17.2083C8.49579 16.8736 7.50103 16.4819 6.56945 15.9766C6.2747 15.8128 5.9559 15.6828 5.70018 15.4622C5.39181 15.34 5.14749 15.1182 4.85883 14.9659C4.84627 14.96 4.83594 14.9517 4.82377 14.9453L4.47569 14.8241C4.33271 14.7423 4.22104 14.653 4.10347 14.5648C3.98812 14.4691 3.86813 14.3717 3.70409 14.281C3.55155 14.1963 3.60749 14.1488 3.67105 14.1273C3.67579 14.1087 3.66903 14.0813 3.66632 14.0569C3.64265 14.0231 3.63666 13.9846 3.63145 13.9477L3.61686 13.9351C3.69859 13.963 3.77162 14.0015 3.84079 14.0449C3.89083 14.0689 3.92503 14.0948 3.94909 14.1215C4.08173 14.2211 4.20287 14.3352 4.336 14.4364L4.49414 14.5387C4.56331 14.5955 4.63944 14.6447 4.71238 14.6979C5.15059 14.9041 5.59314 15.0967 6.0414 15.2619C6.51728 15.4211 6.99326 15.5755 7.4648 15.7515C7.59899 15.7856 7.73085 15.8275 7.8662 15.8532C7.75819 15.8137 7.65444 15.757 7.55136 15.7005C7.4023 15.6459 7.23111 15.5605 7.10832 15.5414C6.77677 15.4895 6.53718 15.3752 6.32107 15.2487C6.21442 15.1838 6.11008 15.1197 6.0044 15.0552C5.89977 14.9852 5.79196 14.9163 5.67081 14.8561L5.70018 14.8222C5.3922 14.7127 5.09224 14.5789 4.81497 14.4101C4.64688 14.3078 4.42101 14.1792 4.54882 14.13C4.66494 14.085 4.87487 14.1897 5.03108 14.3127C5.17377 14.4249 5.3152 14.5298 5.52861 14.592L5.88654 14.545C5.85533 14.5161 5.822 14.4898 5.79147 14.4599C5.64057 14.316 5.49113 14.1618 5.33424 14.0171C5.19097 13.9211 5.04316 13.8259 4.89042 13.7316C4.74774 13.6437 4.57877 13.556 4.63654 13.4672C4.66388 13.4771 4.69393 13.488 4.72223 13.4975C4.71045 13.4883 4.69972 13.4784 4.68784 13.4692C4.64669 13.4373 4.59452 13.4124 4.57781 13.3632C4.56389 13.3226 4.58341 13.2871 4.62273 13.2869C4.66572 13.2867 4.68852 13.33 4.70552 13.366C4.78213 13.4122 4.85603 13.4608 4.9111 13.5287C4.91999 13.5373 4.9282 13.547 4.93486 13.5579C4.94375 13.5697 4.95573 13.5779 4.96549 13.5884C5.15261 13.6636 5.33974 13.7383 5.52648 13.8123C5.48716 13.7888 5.44746 13.7655 5.40833 13.7419C5.29801 13.6535 5.16034 13.6047 5.04973 13.5154C4.99283 13.446 4.92762 13.3879 4.85748 13.3361C4.80715 13.3081 4.75885 13.2775 4.7146 13.2416C4.64649 13.2005 4.57607 13.1624 4.50574 13.1238C4.35049 12.9859 4.21756 12.8235 4.07555 12.6751C3.93498 12.524 3.78988 12.3799 3.63647 12.2369C3.60401 12.2079 3.57889 12.1786 3.56034 12.1499C3.45862 12.1423 3.48016 12.2153 3.52605 12.3023C3.1771 12.0419 3.27043 11.8723 3.16841 11.6645C3.21169 11.5693 3.38597 11.6394 3.57416 11.7105C3.6385 11.7311 3.70245 11.7513 3.7665 11.7715C3.8178 11.6381 3.75365 11.4704 3.73481 11.3191C3.72757 11.2626 3.66168 11.1972 3.71907 11.1515C3.78718 11.0962 3.86726 11.1499 3.92233 11.1976C3.95199 11.223 3.98213 11.2403 4.01237 11.2609C4.19041 11.2841 4.36884 11.3178 4.55394 11.3815C4.56699 11.379 4.57983 11.3799 4.59307 11.3766C4.8171 11.4522 5.02162 11.5555 5.21493 11.6782C5.41162 11.7958 5.60251 11.9258 5.78674 12.0695C5.93349 12.1882 6.09289 12.2885 6.29083 12.3128C6.27944 12.2431 6.23664 12.219 6.19809 12.1922C6.04207 12.0872 5.8903 11.9772 5.7366 11.8702C5.5828 11.764 5.42031 11.6704 5.25618 11.579C5.18662 11.5392 5.1017 11.5052 5.09368 11.3836C5.36563 11.5194 5.57537 11.7231 5.83852 11.8278C5.9472 11.8966 6.05608 11.9657 6.16998 12.0273C6.22997 12.0739 6.28687 12.1258 6.35112 12.1669C6.6875 12.3919 7.04437 12.5861 7.39611 12.7918C7.42877 12.8087 7.46132 12.8261 7.49378 12.8433C7.73588 12.8791 7.97797 12.9192 8.24509 13.0569C8.39928 13.109 8.55356 13.1527 8.71045 13.19C8.86801 13.2246 9.02451 13.2647 9.17831 13.3307L9.54349 13.3406C9.39365 13.2622 9.23154 13.2212 9.06345 13.1943C8.92018 13.1729 8.77962 13.1404 8.64736 13.0804C8.62118 13.0697 8.59539 13.0575 8.57095 13.0418C8.54438 13.0276 8.51675 13.0171 8.48777 13.0104C8.0855 12.9156 7.70351 12.7772 7.37476 12.5593C7.26531 12.4665 7.02389 12.4508 6.91192 12.289C7.05016 12.3426 7.18995 12.3911 7.33003 12.4329C7.46963 12.4764 7.60729 12.5193 7.74138 12.5611C8.0113 12.6403 8.27156 12.7018 8.51627 12.7123L8.39126 12.5836C8.37474 12.5749 8.36247 12.5661 8.36575 12.5574C8.08299 12.4171 7.74225 12.3243 7.51262 12.1422C7.20918 12.0407 6.94071 11.8776 6.69185 11.7126L6.68644 11.7117C6.50115 11.6516 6.31508 11.5909 6.13085 11.531C5.63565 11.3925 5.18498 11.1101 4.71566 10.8832C4.578 10.8143 4.467 10.7308 4.47347 10.6551C4.48072 10.5703 4.63558 10.6145 4.74861 10.6807C4.95457 10.8015 5.16904 10.9007 5.38167 11.0015C5.59449 11.1016 5.80316 11.209 6.01531 11.3158C6.17616 11.3591 6.34262 11.4127 6.47671 11.408C6.38648 11.3271 6.26523 11.289 6.14815 11.2436C5.96875 11.1867 5.78761 11.1308 5.65652 10.9437C5.91755 11.069 6.14264 11.1265 6.35585 11.2152C6.46241 11.2566 6.56674 11.3166 6.67195 11.3681L6.99259 11.485C7.00901 11.4167 6.90438 11.3631 6.79164 11.3083C6.47284 11.1494 6.14776 11.0043 5.83688 10.832C5.74559 10.7784 5.60812 10.7355 5.60705 10.6311C5.66482 10.6565 5.72424 10.6799 5.78346 10.7036C6.40966 10.8724 7.02988 11.0394 7.64884 11.2061C7.63 11.1952 7.61106 11.1847 7.59319 11.1737C7.44702 11.0736 7.32443 10.9703 7.31158 10.8528C7.30994 10.8382 7.18802 10.7842 7.12175 10.7487L7.07026 10.7238C6.91008 10.6516 6.75126 10.5762 6.5935 10.4992C6.42 10.4554 6.2463 10.4109 6.0754 10.3616C5.82065 10.2844 5.57025 10.2027 5.32902 10.1135C4.86308 9.93851 4.40015 9.7647 3.92957 9.5883C3.49967 9.41497 3.04128 9.27521 2.66055 9.04128L2.06941 8.77744C2.01531 8.7533 1.96189 8.72771 1.90933 8.70078C1.69622 8.60344 1.47876 8.5086 1.30834 8.38356C1.28477 8.36663 1.25743 8.35181 1.22662 8.33883C0.818162 8.14232 0.419659 7.92907 0 7.7996L0.0229924 7.77056C0.00995049 7.68274 0.175534 7.7897 0.264799 7.81355C0.423524 7.87049 0.447772 7.83693 0.432025 7.77671C0.565149 7.81692 0.523125 7.73901 0.599058 7.74064C0.743388 7.78393 0.859123 7.86347 0.980365 7.93609C1.20256 8.01583 0.98848 7.77527 1.29405 7.91089L1.30342 7.91522C1.30815 7.91195 1.31723 7.91089 1.3181 7.90531C1.55575 7.95398 1.80191 8.05373 2.03888 8.17146C2.44801 8.3697 2.85705 8.56083 3.26782 8.75128C3.27767 8.75541 3.27255 8.77292 3.27439 8.78427C2.75638 8.5969 2.75802 8.59228 2.56558 8.5665C2.68972 8.67519 2.90409 8.72925 3.0606 8.81678C3.36075 8.94192 3.65135 9.06514 3.97701 9.24452C3.73539 9.20451 3.57648 9.12574 3.41833 9.06889C3.26734 9.05177 3.11412 9.0409 2.94042 9.01512C3.07296 9.11381 3.17962 9.18181 3.28501 9.25539L3.27477 9.25212C3.60729 9.37563 3.96889 9.45883 4.26934 9.62148C4.51627 9.75855 4.79614 9.86099 5.08412 9.96304C5.48011 10.0877 5.87494 10.2195 6.27219 10.3387C6.24813 10.3268 6.22418 10.3153 6.2006 10.3032C5.92325 10.1396 5.64512 9.9791 5.35578 9.83521C5.20797 9.76163 5.20797 9.71401 5.22613 9.66294C5.2754 9.60725 5.30603 9.57041 5.3154 9.53328C5.25309 9.51702 5.19116 9.50231 5.12885 9.48403C4.85719 9.40218 4.58486 9.30551 4.3273 9.15834C4.6262 9.23337 4.9026 9.31994 5.16711 9.41516C5.21454 9.43161 5.26033 9.44854 5.30728 9.46518C5.28081 9.40545 5.20478 9.3259 5.0591 9.17498C5.35491 9.34696 5.6514 9.52049 5.95049 9.66909C6.10023 9.74325 6.25026 9.81107 6.40116 9.86897C6.55457 9.92197 6.71397 9.95496 6.87028 9.98036L6.51023 9.8278C6.39247 9.77298 6.27866 9.70988 6.16254 9.6514C6.00681 9.59349 5.85301 9.5277 5.70926 9.43411C5.6855 9.42055 5.66212 9.40564 5.64 9.38842L5.62898 9.37947C5.63294 9.21442 5.80664 9.36755 5.93812 9.44152L6.33431 9.62004L6.57196 9.6462L6.56636 9.64476C6.3089 9.54684 6.11984 9.39352 5.94904 9.23029C5.53315 9.12169 5.546 9.11939 5.30796 8.84006C5.18643 8.68154 5.07919 8.51235 4.89651 8.36211C4.81894 8.29824 4.7287 8.23716 4.61587 8.18281C4.52274 8.13722 4.42526 8.06114 4.38314 7.96966C4.24287 7.9158 4.10269 7.86222 3.96107 7.81615C3.68033 7.72544 3.41495 7.62156 3.16406 7.48363C2.9752 7.38013 2.76556 7.29914 2.56017 7.21171L2.13105 6.95768C2.16872 6.94133 2.21094 6.94335 2.25441 6.95576C2.19423 6.92488 2.13559 6.89189 2.08178 6.85313C1.95696 6.69172 1.95773 6.68941 2.18283 6.7805C2.66702 6.98423 3.1204 7.22393 3.60768 7.4164C3.35322 7.23864 2.97838 7.1413 2.72064 6.96605L2.09897 6.66037C2.05395 6.599 2.08129 6.5713 2.16563 6.57091L2.73967 6.85082C2.85086 6.91016 2.96843 6.95576 3.0889 6.99423C3.05519 6.87102 3.22145 6.90035 3.43611 6.99471C3.67685 7.1035 3.90513 7.21546 4.13206 7.32492C4.35831 7.43554 4.57906 7.55558 4.80927 7.66312C4.46661 7.59723 4.15148 7.42111 3.82282 7.34801L4.27591 7.53499L4.59355 7.66167C4.7403 7.72102 4.88975 7.77546 5.03775 7.83029C5.1303 7.77036 5.23067 7.7166 5.20749 7.57164C5.20585 7.57097 5.2044 7.57058 5.20275 7.5702C4.94974 7.48142 4.69847 7.38841 4.45019 7.28702L4.41338 7.26933L4.37367 7.25548C4.15274 7.11793 3.83867 7.06541 3.62777 6.91353L3.59918 6.89679L3.56585 6.884C3.41872 6.78676 3.22145 6.73174 3.06533 6.64248C3.05789 6.63796 3.04833 6.63257 3.04031 6.62786C2.92728 6.60227 2.82893 6.54417 2.73262 6.48271L2.21142 6.22483C2.31856 6.18674 2.47941 6.24157 2.65562 6.32256C2.65765 6.32006 2.65688 6.31784 2.6591 6.31573C2.719 6.31515 2.79019 6.33266 2.8699 6.36334L2.90071 6.37161C2.95327 6.25725 3.05045 6.27976 3.42509 6.44606C3.75182 6.59506 4.07622 6.74568 4.41985 6.86217C4.39193 6.80388 4.28837 6.75973 4.18935 6.71577C4.05574 6.65748 3.95363 6.59256 3.89006 6.51801C3.69752 6.4225 3.51494 6.32439 3.44896 6.21233C3.41601 6.15683 3.33457 6.11335 3.24338 6.07603C2.99452 5.97282 2.80015 5.82845 2.57524 5.7085C2.58645 5.67262 2.63427 5.68542 2.72605 5.72235C3.02553 5.84518 3.274 6.01255 3.56633 6.13269L3.77346 6.1474L3.54228 6.00062C3.314 5.90347 3.07093 5.81777 2.8498 5.68176C2.93327 5.63069 3.13238 5.67224 3.14068 5.58654C3.14339 5.55932 3.26077 5.60337 3.33776 5.64117L3.41766 5.66714C3.52015 5.52507 3.43485 5.44553 3.03529 5.2645C2.94612 5.22497 2.82304 5.21718 2.76392 5.12147C2.94438 5.13446 3.14204 5.28461 3.31574 5.31154L3.17807 5.19736C3.03674 5.1133 2.89453 5.02836 2.75416 4.94468C2.61939 4.86465 2.54095 4.77962 2.50182 4.69892C2.44801 4.58927 2.52346 4.57282 2.74933 4.62707C3.01094 4.69488 3.23526 4.82579 3.4705 4.95122C3.63251 5.0401 3.81616 5.16437 3.99295 5.13513C3.87229 5.0677 3.75114 5.00047 3.69666 4.92275C3.59116 4.86552 3.48885 4.80011 3.38577 4.73942C2.88207 4.43537 2.88381 4.43595 3.03326 4.25213C3.12967 4.13354 3.19527 4.13546 3.59068 4.27599C3.58826 4.23213 3.50856 4.1623 3.55464 4.13498C3.53832 4.11651 3.52528 4.10141 3.51185 4.08602C3.34597 4.00109 3.18164 3.91346 3.02079 3.82237C2.96447 3.79044 2.97027 3.74359 2.99558 3.70493C2.86555 3.46042 2.66683 3.28497 2.36184 3.16484C2.27943 3.13454 2.18486 3.09414 2.1437 2.99209C2.33885 3.04056 2.53139 3.09578 2.71001 3.18177C2.90632 3.2642 3.08378 3.27978 3.25951 3.22976L3.22531 3.1582C3.13131 3.13165 3.02678 3.12011 2.94477 3.07558C2.70363 2.94659 2.46164 2.83049 2.20601 2.73296C2.04304 2.66784 1.8818 2.57079 1.79032 2.41804C1.88383 2.38159 1.95232 2.42651 2.02063 2.45267L2.88168 2.78394C2.97838 2.81731 3.07673 2.84636 3.17421 2.87733C3.26405 2.90552 3.38664 2.96284 3.42007 2.8707C3.45765 2.76778 3.30878 2.75941 3.23401 2.71632C3.21623 2.70583 3.19411 2.69881 3.17363 2.69506C2.72643 2.61725 2.45004 2.23173 2.03289 2.09245C2.11037 2.06128 2.17597 2.10293 2.24099 2.12621C2.39749 2.18229 2.41903 2.1163 2.39749 2.0079C2.16331 1.95144 1.94431 1.82611 1.70327 1.78792C1.67516 1.7834 1.6456 1.7608 1.61932 1.74329C1.58512 1.72078 1.54503 1.69789 1.55411 1.65663C1.56261 1.61959 1.59836 1.60286 1.63729 1.60036C1.68579 1.59709 1.74394 1.59257 1.78713 1.61171C1.99106 1.7026 2.21616 1.72732 2.40802 1.84919C2.53892 1.90527 2.65292 1.88305 2.7643 1.85102C2.70035 1.75252 2.59437 1.70818 2.48685 1.67394C2.35566 1.63248 2.23558 1.56246 2.13742 1.4833C2.02768 1.3949 2.14428 1.40317 2.20611 1.39904C2.41488 1.52687 2.63717 1.62412 2.86333 1.71011C2.90902 1.66836 2.96843 1.64085 3.0548 1.64056C3.21101 1.58102 3.36713 1.56246 3.55609 1.61402L3.55716 1.61421C3.94803 1.53553 4.32624 1.63133 4.70465 1.748C4.6037 1.67788 4.48294 1.61873 4.35667 1.53197C4.66156 1.61642 4.90221 1.71088 5.13484 1.83063L5.14711 1.91143C5.19097 1.92807 5.23318 1.95509 5.28284 1.93595C5.3781 1.91162 5.47576 1.92095 5.57537 1.93903L6.28108 2.0633C6.33537 2.05138 6.39189 2.07648 6.44656 2.07369C6.46685 2.08649 6.48753 2.09678 6.5082 2.10534C6.58645 2.0936 6.65707 2.10264 6.71523 2.14679C6.77648 2.15112 6.84024 2.14477 6.90197 2.14872L8.18925 2.49307C8.62041 2.59782 9.062 2.6639 9.50001 2.73094C9.65719 2.74864 9.79853 2.82472 9.953 2.85156C10.0525 2.89878 10.2016 2.87464 10.2689 2.96717C10.2809 2.95852 10.2941 2.95073 10.3101 2.94428C10.4039 2.91542 10.504 2.91052 10.602 2.92283C10.8292 2.95111 11.0578 2.98199 11.2842 3.01844L11.6226 3.07769C11.7356 3.0927 11.848 3.10982 11.9594 3.12934C12.2382 3.17782 12.519 3.20052 12.7986 3.21928L13.2178 3.24727L13.6381 3.26535C14.3022 3.30479 14.9739 3.34884 15.6435 3.32643C15.7921 3.32499 15.9484 3.31056 16.0801 3.39646C16.1219 3.44801 16.189 3.481 16.2562 3.5138C16.348 3.49938 16.4397 3.48754 16.5351 3.50803C16.6078 3.52535 16.6705 3.47071 16.6939 3.41031C16.7142 3.35654 16.6695 3.31489 16.6343 3.27651C16.5896 3.22938 16.5197 3.20168 16.4487 3.20649C16.207 3.21861 15.9751 3.1785 15.741 3.13531C15.5984 3.10914 15.4423 3.11742 15.2945 3.13079C14.9572 3.16955 14.6214 3.19225 14.2801 3.16503C13.9703 3.13925 13.6607 3.1129 13.3504 3.10135C11.9546 2.99045 10.5537 2.8505 9.18353 2.54934L8.57153 2.42901C8.36141 2.49413 8.1453 2.42179 7.92899 2.37043C7.55136 2.27665 7.17962 2.1643 6.81068 2.04561C6.44821 1.9071 6.09086 1.75724 5.73168 1.61507C5.72153 1.60324 5.7083 1.59651 5.69197 1.5942C5.57826 1.52187 5.45509 1.47762 5.31849 1.46723C5.3067 1.45713 5.29241 1.45261 5.27627 1.45348C5.16469 1.4102 5.05456 1.34546 4.94153 1.3269C4.66736 1.2813 4.54853 1.08883 4.41464 0.914063C4.38855 0.880013 4.39744 0.82586 4.35358 0.797004C4.17988 0.682349 4.06724 0.542204 4.05632 0.356852C4.04676 0.316261 4.03536 0.275286 4.03005 0.232194C4.00261 0.0176009 4.04531 -0.0149103 4.27659 0.00500039C4.32334 0.00894406 4.37078 0.0172161 4.41667 0.0289509C4.74938 0.112826 5.07562 0.206608 5.3837 0.361469C5.48987 0.380803 5.59198 0.412544 5.69574 0.441978C5.80046 0.469006 5.90373 0.50094 6.00681 0.53374C6.21316 0.599339 6.41855 0.668498 6.63012 0.709954C6.65108 0.71409 6.6676 0.747275 6.68625 0.767089C6.79309 0.754874 6.89125 0.799601 6.98988 0.833266C7.27893 0.934166 7.5814 0.9989 7.87267 1.09499L8.20017 1.18839C8.21988 1.19387 8.23949 1.20012 8.25871 1.20753C8.34093 1.23398 8.42188 1.26361 8.49907 1.30468C8.60283 1.32151 8.70552 1.34315 8.80464 1.3798C8.95621 1.37595 9.09861 1.40664 9.23299 1.47358L9.23396 1.47406L9.38167 1.50561C9.4462 1.49282 9.50658 1.50109 9.56087 1.5413C9.64019 1.54765 9.72385 1.51283 9.79689 1.57458L10.1811 1.65009L10.5687 1.70943C11.605 1.90315 12.6539 2.04378 13.7089 2.12996C13.8654 2.02454 14.043 2.01713 14.2296 2.04109C14.4984 2.07379 14.768 2.11197 15.0386 2.12265C15.3094 2.1266 15.581 2.11813 15.8515 2.08822C15.9772 2.07427 16.0797 2.10928 16.1588 2.19672C16.5523 2.20807 16.9443 2.17815 17.3371 2.15814L17.4926 2.15151C17.6648 2.13756 17.8378 2.12804 18.0115 2.12227C18.0546 2.11775 18.0974 2.114 18.1403 2.10745C18.3613 2.11938 18.5814 2.04109 18.8028 2.08062C19.1106 2.04147 19.4186 2.0079 19.7276 1.98001C20.0341 1.93942 20.3403 1.89555 20.6492 1.86295L21.3787 1.77782L22.1001 1.64528L22.8225 1.51158C23.0629 1.46521 23.2975 1.39759 23.5358 1.34296C23.8407 1.2689 24.1495 1.20897 24.4576 1.14299C24.7601 1.06056 25.0606 0.968024 25.3542 0.852792C25.0533 1.08508 24.6684 1.16425 24.3287 1.3267C24.639 1.26995 24.9251 1.14616 25.222 1.05402C25.3971 0.996495 25.5627 0.907234 25.7517 0.895018C25.8235 0.812009 25.9163 0.775554 26.0269 0.772861C26.049 0.820473 25.9596 0.845386 25.9996 0.891171C26.0811 0.900886 26.147 0.850772 26.2124 0.814894C26.5123 0.646086 26.8388 0.541146 27.1516 0.403407C27.2884 0.34329 27.4284 0.301641 27.5689 0.366182L27.5374 0.499113L27.5132 0.510848C27.5414 0.533067 27.6186 0.547495 27.5337 0.593953C27.4414 0.644259 27.3096 0.629542 27.2483 0.728134C27.1783 0.840384 27.0607 0.892806 26.9448 0.945997C26.5832 1.10903 26.2264 1.28592 25.8485 1.41327C25.7107 1.46416 25.5698 1.52927 25.4305 1.44453C25.3822 1.41529 25.3182 1.43963 25.2609 1.45733L24.6217 1.64845C24.4047 1.69953 24.1883 1.75291 23.974 1.81312C23.6012 1.91143 23.2342 2.02887 22.8542 2.10005C22.3877 2.18392 21.9264 2.29069 21.4613 2.37784C21.0095 2.43738 20.5603 2.50942 20.1113 2.58541C19.8876 2.62898 19.6606 2.65081 19.434 2.67717L18.7545 2.75402C18.8272 2.8756 18.9599 2.82347 19.0701 2.81222C19.3808 2.77672 19.6936 2.75383 20.0022 2.70583L20.9274 2.55241C21.0195 2.53741 21.1126 2.50442 21.2033 2.53347C21.1994 2.5805 21.1769 2.59984 21.1483 2.60359C20.8722 2.63946 20.609 2.68958 20.3629 2.83501C20.2564 2.89792 20.0954 2.92206 19.96 2.87435C19.8767 2.84761 19.7876 2.84203 19.6985 2.83953C19.2392 2.92629 18.7799 3.01315 18.3084 3.10212C18.4007 3.21947 18.5171 3.244 18.6562 3.24361C18.8873 3.24256 19.1201 3.24169 19.3499 3.26102C19.4894 3.27305 19.5996 3.26372 19.7151 3.18484C19.82 3.11347 19.9584 3.10789 20.0921 3.11963C20.2399 3.13598 20.3902 3.14194 20.5422 3.12155L21.5822 2.98362L22.6125 2.78788C22.6696 2.77711 22.7316 2.74844 22.7899 2.80106C22.7013 2.89503 22.5666 2.91273 22.4494 2.95784L22.3883 3.04181C22.8545 2.98526 23.3193 2.8882 23.7881 2.81116C23.7776 2.90388 23.7093 2.92658 23.641 2.95024C23.5543 2.98016 23.4599 3.00238 23.4361 3.09828L24.1409 2.88551C24.2287 2.85858 24.3407 2.83646 24.3717 2.76028C24.4306 2.61532 24.5699 2.56934 24.7072 2.5327C24.9642 2.47229 25.2138 2.39044 25.4694 2.32551C25.5263 2.31002 25.5958 2.29521 25.6449 2.30906C25.7786 2.34658 25.906 2.303 26.0235 2.24827C26.1367 2.19566 26.2426 2.17565 26.3446 2.18036C26.9127 1.917 27.4717 1.63874 28.0159 1.34008L28.4067 1.11211C28.5481 1.03333 28.6504 1.02535 28.7187 1.06161C28.7601 1.08364 28.7055 1.15415 28.7773 1.16934C28.6713 1.22484 28.5744 1.27592 28.4773 1.3269C28.4732 1.34027 28.4676 1.35402 28.4605 1.36835C28.3092 1.49465 28.2165 1.64364 27.9722 1.73598C27.9219 1.75608 27.8807 1.79783 27.8816 1.82611C27.8823 1.86381 27.9397 1.85804 28.0041 1.84563C28.0956 1.82842 28.2207 1.75378 28.2864 1.7909C28.1408 1.92912 28.2426 2.03676 27.9769 2.19422C27.9383 2.21749 27.9457 2.26222 27.9894 2.25914C28.2554 2.24077 28.1606 2.31474 28.0041 2.41516C28.0418 2.42131 28.0785 2.43372 28.1145 2.46277C28.1455 2.48797 28.1647 2.51452 28.1778 2.54193C28.3598 2.46113 28.5313 2.42122 28.7137 2.40794C28.5738 2.48181 28.469 2.52442 28.3678 2.57329C28.3076 2.59907 28.2482 2.626 28.1886 2.65264C28.1811 2.6891 28.1674 2.72642 28.1424 2.76557C28.0871 2.85213 28.0473 2.92629 28.0587 2.99478C28.2357 2.96486 28.4181 2.92283 28.6278 2.82039C28.9936 2.65245 29.341 2.45498 29.6808 2.24741C29.8523 2.13852 30.026 2.01781 30.2146 1.98357L30.2931 1.9448C30.4133 1.88276 30.5359 1.81024 30.6073 1.8389C30.6924 1.87208 30.5326 1.97818 30.4789 2.05234C30.4336 2.11448 30.3892 2.17507 30.2994 2.23692C30.2847 2.27713 30.232 2.31089 30.1745 2.34369C30.1382 2.37255 30.1262 2.39275 30.1241 2.40948C30.1358 2.38938 30.1509 2.36774 30.1745 2.34369C30.1699 2.40246 30.2521 2.43026 30.1119 2.53779C30.2802 2.57079 30.5774 2.38611 30.7769 2.35129C30.8109 2.4292 30.7611 2.50769 30.6717 2.57675C30.8221 2.48672 30.9676 2.38919 31.1149 2.29521C31.2263 2.22269 31.3249 2.16661 31.3979 2.19075C31.2143 2.32205 31.0308 2.45123 30.8796 2.59907C30.7544 2.7219 30.6077 2.83607 30.4297 2.93957C30.3608 3.00324 30.284 3.06759 30.2237 3.13079C30.0836 3.27843 30.102 3.29719 30.3165 3.20995C30.4529 3.15455 30.5892 3.09077 30.685 3.10174C30.7019 3.15714 30.5015 3.28478 30.5671 3.29796C30.6939 3.32297 30.5156 3.52304 30.6899 3.49918C30.8508 3.4761 31.0392 3.32768 31.2121 3.2288C31.2373 3.20581 31.2659 3.18359 31.2946 3.16301C31.4594 3.03393 31.644 2.93005 31.8325 2.8303C31.9043 2.79259 31.9802 2.76576 31.9973 2.79529C32.0142 2.82472 31.9531 2.87858 31.884 2.92427Z" fill="#FC1669"/>
</svg>
