<svg width="12" height="8" viewBox="0 0 12 8" fill="none" xmlns="http://www.w3.org/2000/svg">
<path d="M11.8801 5.75342L6.27645 0.12091C6.19639 0.0403457 6.10428 0 6.00008 0C5.89589 0 5.80361 0.0403457 5.72351 0.12091L0.120283 5.75342C0.0400101 5.83411 0 5.92669 0 6.03147C0 6.13621 0.0401365 6.22893 0.120283 6.30945L0.721361 6.91362C0.801508 6.99418 0.893741 7.03444 0.997936 7.03444C1.10213 7.03444 1.19436 6.99418 1.27451 6.91362L6.00008 2.16351L10.7258 6.91391C10.8059 6.99448 10.8982 7.03448 11.0022 7.03448C11.1066 7.03448 11.1988 6.99422 11.2789 6.91391L11.8801 6.30949C11.9602 6.22897 12 6.13621 12 6.03152C12 5.92669 11.9602 5.83398 11.8801 5.75342Z" fill="#161616"/>
</svg>
