<svg width="10" height="16" viewBox="0 0 10 16" fill="none" xmlns="http://www.w3.org/2000/svg">
<path opacity="0.4" d="M7.67122 0.159816L0.161213 7.6314C0.0537939 7.73815 -3.55769e-07 7.86096 -3.49696e-07 7.99989C-3.43623e-07 8.13881 0.0537939 8.26185 0.161213 8.36865L7.67122 15.8396C7.77881 15.9467 7.90226 16 8.04197 16C8.18162 16 8.30523 15.9465 8.4126 15.8396L9.21815 15.0382C9.32557 14.9313 9.37925 14.8083 9.37925 14.6694C9.37925 14.5305 9.32557 14.4075 9.21815 14.3007L2.88467 7.99989L9.21855 1.6989C9.32597 1.59209 9.37931 1.46906 9.37931 1.33036C9.37931 1.19121 9.32563 1.06823 9.21855 0.961422L8.41265 0.159873C8.30529 0.0530668 8.18162 -3.5763e-07 8.04202 -3.51528e-07C7.90226 -5.56585e-05 7.77864 0.0530106 7.67122 0.159816Z" fill="#707070"/>
</svg>
