<svg width="10" height="16" viewBox="0 0 10 16" fill="none" xmlns="http://www.w3.org/2000/svg">
<path opacity="0.4" d="M1.70817 15.8402L9.21818 8.3686C9.3256 8.26185 9.37939 8.13904 9.37939 8.00011C9.37939 7.86119 9.3256 7.73815 9.21818 7.63135L1.70817 0.160377C1.60059 0.0533465 1.47714 -3.45419e-07 1.33743 -3.51525e-07C1.19778 -3.5763e-07 1.07416 0.0535149 0.966797 0.160377L0.161241 0.961814C0.0538215 1.06868 0.000140138 1.19165 0.000140132 1.33058C0.000140126 1.46951 0.0538215 1.59249 0.161241 1.69935L6.49472 8.00011L0.160844 14.3011C0.0534252 14.4079 8.32882e-05 14.5309 8.32821e-05 14.6696C8.3276e-05 14.8088 0.0537637 14.9318 0.160844 15.0386L0.96674 15.8401C1.0741 15.9469 1.19778 16 1.33737 16C1.47713 16.0001 1.60075 15.947 1.70817 15.8402Z" fill="#707070"/>
</svg>
