<?xml version="1.0" encoding="utf-8"?>
<!-- Generator: Adobe Illustrator 23.1.0, SVG Export Plug-In . SVG Version: 6.00 Build 0)  -->
<svg version="1.1" id="Слой_1" xmlns="http://www.w3.org/2000/svg" xmlns:xlink="http://www.w3.org/1999/xlink" x="0px" y="0px"
	 viewBox="0 0 135 135" style="enable-background:new 0 0 135 135;" xml:space="preserve">
<style type="text/css">
	.st0{fill:#E253B6;}
	.st1{fill:#FFFFFF;}
	.st2{fill:#F3F3F9;}
</style>
<path class="st0" d="M0.1,49.1L49.2,0h56.6L0.1,105.6V49.1z"/>

<path class="st2" d="M22.6,63.2l0.4-0.9L22.3,62l-0.5,0.5L22.6,63.2z M17.5,68.3l-0.7-0.7L16.3,68l0.3,0.6L17.5,68.3z M19.5,72.5
	l0.7,0.7l0.5-0.5l-0.3-0.6L19.5,72.5z M17.9,74.2L17,74.6l0.6,1.3l1-1L17.9,74.2z M10.4,57.5l-0.7-0.7l-0.5,0.5l0.3,0.6L10.4,57.5z
	 M11.8,56.1l0.4-0.9l-0.6-0.3l-0.5,0.5L11.8,56.1z M28.5,63.6l0.7,0.7l1-1l-1.3-0.6L28.5,63.6z M26.9,65.2l-0.4,0.9l0.6,0.3l0.5-0.5
	L26.9,65.2z M16.7,66.5l-0.9,0.4l0.6,1.3l1-1L16.7,66.5z M20.8,62.4l0.7,0.7l1-1l-1.3-0.6L20.8,62.4z M13.1,58.8l0.4-0.9L11,56.7
	l1.2,2.5L13.1,58.8z M21.8,62.5l-5.1,5.1l1.4,1.4l5.1-5.1L21.8,62.5z M16.6,68.7l2,4.3l1.8-0.9l-2-4.3L16.6,68.7z M18.8,71.8
	l-1.6,1.6l1.4,1.4l1.6-1.6L18.8,71.8z M18.8,73.8l-7.5-16.7l-1.8,0.8L17,74.6L18.8,73.8z M11.1,58.2l1.4-1.4l-1.4-1.4l-1.4,1.4
	L11.1,58.2z M11.4,57l16.7,7.4l0.8-1.8l-16.7-7.4L11.4,57z M27.8,62.9l-1.6,1.6l1.4,1.4l1.6-1.6L27.8,62.9z M27.3,64.3l-4.3-2
	l-0.8,1.8l4.3,2L27.3,64.3z M17.4,67.2l4.1-4.1l-1.4-1.4L16,65.8L17.4,67.2z M21.2,61.5l-7.7-3.6l-0.8,1.8l7.7,3.6L21.2,61.5z
	 M12.2,59.2l3.6,7.7l1.8-0.8L14,58.4L12.2,59.2z M28.8,55.6l0.1-1l-0.5,0l-0.3,0.3L28.8,55.6z M27.7,56.7L27,56l-0.7,0.7l0.7,0.7
	L27.7,56.7z M31.5,60.5l0.7,0.7l0.7-0.7l-0.7-0.7L31.5,60.5z M30,62l-0.7,0.7l0.7,0.7l0.7-0.7L30,62z M21,53.1l-0.7-0.7l-0.7,0.7
	l0.7,0.7L21,53.1z M22.6,51.5l0.7-0.7l-0.7-0.7l-0.7,0.7L22.6,51.5z M26.4,55.3L25.7,56l0.7,0.7l0.7-0.7L26.4,55.3z M27.4,54.3
	l0.7,0.7l0.3-0.3l-0.1-0.5L27.4,54.3z M26.6,47.5l-0.7-0.7l-0.3,0.3l0.1,0.5L26.6,47.5z M28.5,45.7l1-0.1l-0.2-2.1L27.7,45
	L28.5,45.7z M29.2,53.5l-1,0.1l0.1,0.8l0.8,0.1L29.2,53.5z M37.7,54.3l0.7,0.7l1.5-1.5l-2.1-0.2L37.7,54.3z M35.8,56.3l-0.1,1l0.5,0
	l0.3-0.3L35.8,56.3z M28.1,54.9L27,56l1.4,1.4l1.1-1.1L28.1,54.9z M27,57.4l3.8,3.8l1.4-1.4L28.4,56L27,57.4z M30.8,59.8l-1.5,1.5
	l1.4,1.4l1.5-1.5L30.8,59.8z M30.7,61.3l-9-9l-1.4,1.4l9,9L30.7,61.3z M21.7,53.8l1.5-1.5l-1.4-1.4l-1.5,1.5L21.7,53.8z M21.9,52.2
	l3.8,3.8l1.4-1.4l-3.8-3.8L21.9,52.2z M27.1,56l1-1l-1.4-1.4l-1,1L27.1,56z M28.4,54.2l-0.8-6.8l-2,0.2l0.8,6.8L28.4,54.2z
	 M27.3,48.2l1.9-1.9L27.7,45l-1.9,1.9L27.3,48.2z M27.5,45.8l0.8,7.9l2-0.2l-0.8-7.9L27.5,45.8z M29.1,54.5l8.5,0.8l0.2-2l-8.5-0.8
	L29.1,54.5z M37,53.6l-1.9,1.9l1.4,1.4l1.9-1.9L37,53.6z M35.9,55.3l-6.9-0.7l-0.2,2l6.9,0.7L35.9,55.3z M30.2,43.9l-0.7-0.7
	l-0.7,0.7l0.7,0.7L30.2,43.9z M31.7,42.4l0.7-0.7L31.7,41L31,41.7L31.7,42.4z M39.5,50.1l-0.7,0.7l0.7,0.7l0.7-0.7L39.5,50.1z
	 M43.6,46l0.7,0.7L45,46l-0.7-0.7L43.6,46z M35.9,38.2l-0.7-0.7l-0.7,0.7l0.7,0.7L35.9,38.2z M37.4,36.7l0.7-0.7l-0.7-0.7L36.7,36
	L37.4,36.7z M45.1,44.4l-0.7,0.7l0.7,0.7l0.7-0.7L45.1,44.4z M46.2,43.4l0.7-0.7l-0.7-0.8l-0.7,0.7L46.2,43.4z M49.9,47.4l0.7,0.7
	l0.7-0.7l-0.7-0.7L49.9,47.4z M48.6,48.8l-0.7,0.7l0.7,0.7l0.7-0.7L48.6,48.8z M45.9,46.1l0.7-0.7l-0.7-0.7l-0.7,0.7L45.9,46.1z
	 M39.2,52.9l-0.7,0.7l0.7,0.7l0.7-0.7L39.2,52.9z M30.9,44.6l1.5-1.5L31,41.7l-1.5,1.5L30.9,44.6z M31,43.1l7.7,7.7l1.4-1.4
	l-7.7-7.7L31,43.1z M40.2,50.8l4.1-4.1l-1.4-1.4l-4.1,4.1L40.2,50.8z M44.3,45.3l-7.7-7.7L35.2,39l7.7,7.7L44.3,45.3z M36.6,39
	l1.5-1.5L36.7,36l-1.5,1.5L36.6,39z M36.7,37.4l7.7,7.7l1.4-1.4L38.1,36L36.7,37.4z M45.8,45.1l1.1-1.1l-1.4-1.4l-1.1,1.1L45.8,45.1
	z M45.5,44l3.8,4.1l1.5-1.4l-3.8-4.1L45.5,44z M49.2,46.7l-1.4,1.4l1.4,1.4l1.4-1.4L49.2,46.7z M49.3,48.1l-2.7-2.7l-1.4,1.4
	l2.7,2.7L49.3,48.1z M45.2,45.4l-6.7,6.7l1.4,1.4l6.7-6.7L45.2,45.4z M39.9,52.2l-9-9l-1.4,1.4l9,9L39.9,52.2z M45.9,28.2l-0.7-0.7
	l-0.4,0.4l0.1,0.5L45.9,28.2z M47.5,26.7l0.7-0.7l-0.7-0.7l-0.7,0.7L47.5,26.7z M56.4,35.6l0.7,0.7l0.7-0.7l-0.7-0.7L56.4,35.6z
	 M54.9,37.2l-0.7,0.7l0.7,0.7l0.7-0.7L54.9,37.2z M48.4,30.6l0.7-0.7l-2.4-2.4l0.8,3.4L48.4,30.6z M50.8,41.3l0.7,0.7l0.4-0.4
	l-0.1-0.5L50.8,41.3z M49.2,42.8l-0.7,0.7l0.7,0.7l0.7-0.7L49.2,42.8z M40.3,33.9l-0.7-0.7l-0.7,0.7l0.7,0.7L40.3,33.9z M41.8,32.3
	l0.7-0.7l-0.7-0.7l-0.7,0.7L41.8,32.3z M48.3,38.9l-0.7,0.7l2.4,2.4l-0.8-3.4L48.3,38.9z M46.6,28.9l1.5-1.5l-1.4-1.4l-1.5,1.5
	L46.6,28.9z M46.8,27.4l9,9l1.4-1.4l-9-9L46.8,27.4z M55.7,34.9l-1.5,1.5l1.4,1.4l1.5-1.5L55.7,34.9z M55.6,36.4l-6.5-6.5l-1.4,1.4
	l6.5,6.5L55.6,36.4z M47.4,30.8l2.4,10.7l2-0.4l-2.4-10.7L47.4,30.8z M50.1,40.6l-1.5,1.5l1.4,1.4l1.5-1.5L50.1,40.6z M49.9,42.1
	l-9-9l-1.4,1.4l9,9L49.9,42.1z M41,34.6l1.5-1.5l-1.4-1.4l-1.5,1.5L41,34.6z M41.1,33l6.5,6.5l1.4-1.4l-6.5-6.5L41.1,33z M49.3,38.7
	L46.9,28l-2,0.4l2.4,10.7L49.3,38.7z M56.8,17.3l0.7-0.7l-0.7-0.7l-0.7,0.7L56.8,17.3z M65.7,26.3l0.7,0.7l0.7-0.7l-0.7-0.7
	L65.7,26.3z M64.2,27.9l-0.7,0.7l0.7,0.7l0.7-0.7L64.2,27.9z M60.7,24.4l0.7-0.7l-0.7-0.7L60,23.7L60.7,24.4z M58.4,26.7L57.7,26
	l-0.4,0.4l0.1,0.5L58.4,26.7z M59.8,32.3l0.7,0.7l0.4-0.4L60.7,32L59.8,32.3z M58.1,33.9l-1,0.2l0.4,1.7l1.3-1.3L58.1,33.9z
	 M56.7,28l1-0.2l-0.3-1.2l-1.1,0.5L56.7,28z M54.4,28.3l-0.2,1l0,0l0,0L54.4,28.3z M51.3,24.3l1,0.1l0,0L51.3,24.3z M53,21.1
	l-0.7-0.7l0,0L53,21.1z M55.4,26.3l0,1l0,0L55.4,26.3z M57,25.5l0.7,0.7l0,0L57,25.5z M59.5,23.1l0.7,0.7l0.7-0.7l-0.7-0.7
	L59.5,23.1z M56.5,20.1l0.7-0.7l-0.7-0.7l-0.7,0.7L56.5,20.1z M53.3,24.1l1,0.1l0,0L53.3,24.1z M56.1,18.1l9,9l1.4-1.4l-9-9
	L56.1,18.1z M65,25.6l-1.5,1.5l1.4,1.4l1.5-1.5L65,25.6z M64.9,27.1l-3.5-3.5L60,25.1l3.5,3.5L64.9,27.1z M60,23.7L57.7,26l1.4,1.4
	l2.3-2.3L60,23.7z M57.4,26.9l1.4,5.6l1.9-0.5l-1.4-5.6L57.4,26.9z M59.1,31.6l-1.7,1.7l1.4,1.4l1.7-1.7L59.1,31.6z M59.1,33.7
	l-1.5-6l-1.9,0.5l1.5,6L59.1,33.7z M56.2,27.1c-0.6,0.3-1.2,0.4-1.7,0.3l-0.3,2c1,0.2,1.9,0,2.9-0.4L56.2,27.1z M54.5,27.3
	c-0.5-0.1-1-0.4-1.5-0.8l-1.4,1.4c0.7,0.7,1.6,1.2,2.5,1.4L54.5,27.3z M53.1,26.5c-0.6-0.6-0.8-1.3-0.8-2.1l-2-0.2
	c-0.1,1.4,0.3,2.7,1.3,3.7L53.1,26.5z M52.3,24.4c0.1-0.8,0.5-1.7,1.4-2.6l-1.4-1.4c-1.1,1.1-1.8,2.4-2,3.8L52.3,24.4z M53.7,21.8
	l3.8-3.8l-1.4-1.4l-3.8,3.8L53.7,21.8z M53.2,26.4c0.6,0.6,1.4,0.9,2.3,0.9l-0.1-2c-0.3,0-0.5-0.1-0.8-0.3L53.2,26.4z M55.5,27.3
	c0.9-0.1,1.6-0.4,2.2-1.1l-1.4-1.4c-0.4,0.4-0.7,0.5-1,0.5L55.5,27.3z M57.7,26.2l2.4-2.4l-1.4-1.4l-2.4,2.4L57.7,26.2z M60.2,22.4
	l-3-3l-1.4,1.4l3,3L60.2,22.4z M55.8,19.4l-2.2,2.2L55,23l2.2-2.2L55.8,19.4z M53.6,21.6c-0.7,0.7-1.1,1.5-1.2,2.4l2,0.2
	c0-0.3,0.2-0.7,0.6-1.2L53.6,21.6z M52.3,24c-0.1,0.9,0.2,1.7,0.9,2.4l1.4-1.4c-0.2-0.2-0.3-0.5-0.3-0.8L52.3,24z M66.5,18.7
	l0.7,0.7l0.7-0.7L67.2,18L66.5,18.7z M65.1,20.1l-0.7,0.7l0.7,0.7l0.7-0.7L65.1,20.1z M56.4,11.6l-0.7-0.7l-0.7,0.7l0.7,0.7
	L56.4,11.6z M58,10l0.7-0.7L58,8.5l-0.7,0.7L58,10z M67.2,22.1l-1,0.1l0,0L67.2,22.1z M68.6,20.7l-0.1,1l0,0l0,0L68.6,20.7z
	 M69.8,22l1,0v0v0L69.8,22z M68.4,23.3l-0.1,1l0,0l0,0L68.4,23.3z M65.8,18l-1.4,1.4l1.4,1.4l1.4-1.4L65.8,18z M65.8,19.4l-8.8-8.6
	l-1.4,1.4l8.8,8.6L65.8,19.4z M57.1,12.3l1.6-1.6l-1.4-1.4l-1.6,1.6L57.1,12.3z M57.3,10.6l8.5,8.8l1.4-1.4l-8.5-8.8L57.3,10.6z
	 M68.3,22.2c-0.1-0.1-0.1-0.2-0.1-0.2l-2,0.1c0,0.6,0.3,1.1,0.7,1.5L68.3,22.2z M68.2,22C68.2,22,68.2,22,68.2,22
	C68.2,22,68.2,22,68.2,22C68.2,22,68.2,22,68.2,22C68.2,22,68.2,22,68.2,22c0,0,0-0.1,0.1-0.2l-1.4-1.4c-0.4,0.4-0.7,1-0.7,1.7
	L68.2,22z M68.3,21.8c0.1-0.1,0.1-0.1,0.2-0.1c0,0,0,0,0,0s0,0,0,0c0,0,0,0,0,0c0,0,0,0,0,0l0.1-2c-0.7,0-1.3,0.3-1.7,0.7L68.3,21.8
	z M68.5,21.7c0,0,0.1,0,0.2,0.1l1.4-1.4c-0.4-0.4-0.9-0.7-1.5-0.7L68.5,21.7z M68.7,21.8c0.1,0.1,0.1,0.1,0.1,0.2l2-0.1
	c0-0.6-0.3-1.1-0.7-1.5L68.7,21.8z M68.8,22C68.8,22,68.8,22,68.8,22c0,0-0.1,0.1-0.1,0.2l1.4,1.4c0.4-0.4,0.7-1,0.7-1.6L68.8,22z
	 M68.7,22.2c-0.1,0.1-0.1,0.1-0.2,0.1c0,0,0,0,0,0l0,2c0.7,0,1.2-0.3,1.6-0.7L68.7,22.2z M68.5,22.3c0,0-0.1,0-0.2-0.1l-1.4,1.4
	c0.4,0.4,0.9,0.7,1.5,0.7L68.5,22.3z"/>
</svg>
